<svg width="19" height="18" viewBox="0 0 19 18" fill="none" xmlns="http://www.w3.org/2000/svg">
<path d="M18.9788 6.62575L18.4763 5.62936C18.4537 5.58544 18.4167 5.55344 18.3734 5.54037C18.3301 5.52729 18.284 5.53419 18.2452 5.55957L17.1701 6.27196L15.5099 1.06859C15.4222 0.758109 15.2499 0.487279 15.0178 0.295206C14.7857 0.103132 14.5058 -0.000244692 14.2186 4.34926e-07H5.03101C4.29524 4.34926e-07 3.64217 0.53911 3.41529 1.33574L1.83349 6.27437L0.756346 5.56197C0.717512 5.5366 0.671409 5.5297 0.628106 5.54277C0.584803 5.55585 0.547817 5.58784 0.525226 5.63177L0.0226983 6.62575C-0.0239499 6.71721 0.00361499 6.83273 0.084189 6.88568L1.36489 7.73285L1.05744 8.69555C1.03199 8.77256 1.01927 8.85439 1.01927 8.93622V17.3165C1.01927 17.6943 1.26948 18 1.57693 18H3.0103C3.2711 18 3.49798 17.7762 3.55311 17.4633L3.71638 16.556H15.2851L15.4484 17.4633C15.5056 17.7762 15.7304 18 15.9912 18H17.4246C17.732 18 17.9822 17.6943 17.9822 17.3165V8.93622C17.9822 8.85439 17.9695 8.77256 17.9441 8.69555L17.6366 7.73285L18.9152 6.88568C18.9537 6.86045 18.9819 6.81908 18.9938 6.77048C19.0057 6.72187 19.0003 6.6699 18.9788 6.62575ZM4.24223 11.6221C3.77363 11.6221 3.39409 11.1913 3.39409 10.6594C3.39409 10.1276 3.77363 9.69675 4.24223 9.69675C4.71084 9.69675 5.09038 10.1276 5.09038 10.6594C5.09038 11.1913 4.71084 11.6221 4.24223 11.6221ZM12.4693 13.4272C12.4693 13.5331 12.3929 13.6197 12.2996 13.6197H6.70186C6.60857 13.6197 6.53223 13.5331 6.53223 13.4272V11.4055C6.53223 11.2996 6.60857 11.213 6.70186 11.213H7.55001C7.64331 11.213 7.71964 11.2996 7.71964 11.4055V12.272H11.2819V11.4055C11.2819 11.2996 11.3582 11.213 11.4515 11.213H12.2996C12.3929 11.213 12.4693 11.2996 12.4693 11.4055V13.4272ZM14.7593 11.6221C14.2907 11.6221 13.9111 11.1913 13.9111 10.6594C13.9111 10.1276 14.2907 9.69675 14.7593 9.69675C15.2279 9.69675 15.6074 10.1276 15.6074 10.6594C15.6074 11.1913 15.2279 11.6221 14.7593 11.6221ZM3.30927 6.73646L4.85078 1.92539L4.86138 1.8941L4.86986 1.86282C4.89319 1.78339 4.9568 1.73045 5.03101 1.73045H14.0977L15.6965 6.73646H3.30927Z" fill="#1CA0E3"/>
</svg>
