<svg width="19" height="19" viewBox="0 0 19 19" fill="none" xmlns="http://www.w3.org/2000/svg">
    <path d="M9.5 1.1875C4.86875 1.1875 1.1875 4.86875 1.1875 9.5C1.1875 14.1313 4.86875 17.8125 9.5 17.8125C14.1313 17.8125 17.8125 14.1313 17.8125 9.5C17.8125 4.86875 14.1313 1.1875 9.5 1.1875ZM9.5 16.625C5.58125 16.625 2.375 13.4187 2.375 9.5C2.375 5.58125 5.58125 2.375 9.5 2.375C13.4187 2.375 16.625 5.58125 16.625 9.5C16.625 13.4187 13.4187 16.625 9.5 16.625Z" fill="#1CA0E3"/>
    <path d="M12.7062 13.6562L9.5 10.45L6.29375 13.6562L5.34375 12.7062L8.55 9.5L5.34375 6.29375L6.29375 5.34375L9.5 8.55L12.7062 5.34375L13.6562 6.29375L10.45 9.5L13.6562 12.7062L12.7062 13.6562Z" fill="#1CA0E3"/>
</svg>
