<svg width="11" height="12" viewBox="0 0 16 16" fill="none" xmlns="http://www.w3.org/2000/svg">
<path d="M4.83333 1.99063H4.66667C4.75833 1.99063 4.83333 1.92313 4.83333 1.84063V1.99063H11.1667V1.84063C11.1667 1.92313 11.2417 1.99063 11.3333 1.99063H11.1667V3.34063H12.6667V1.84063C12.6667 1.17875 12.0688 0.640625 11.3333 0.640625H4.66667C3.93125 0.640625 3.33333 1.17875 3.33333 1.84063V3.34063H4.83333V1.99063ZM15.3333 3.34063H0.666667C0.297917 3.34063 0 3.60875 0 3.94063V4.54063C0 4.62313 0.075 4.69063 0.166667 4.69063H1.425L1.93958 14.4969C1.97292 15.1363 2.56042 15.6406 3.27083 15.6406H12.7292C13.4417 15.6406 14.0271 15.1381 14.0604 14.4969L14.575 4.69063H15.8333C15.925 4.69063 16 4.62313 16 4.54063V3.94063C16 3.60875 15.7021 3.34063 15.3333 3.34063ZM12.5688 14.2906H3.43125L2.92708 4.69063H13.0729L12.5688 14.2906Z" fill="#DA1E1E"/>
</svg>
