<svg width="9" height="9" viewBox="0 0 9 9" fill="none" xmlns="http://www.w3.org/2000/svg">
<path d="M5.24193 4.5L8.97288 0.180828C9.03542 0.109049 8.98283 0 8.88618 0H7.75197C7.68517 0 7.62121 0.0289877 7.57715 0.0786809L4.5 3.64141L1.42285 0.0786809C1.38021 0.0289877 1.31625 0 1.24803 0H0.113819C0.0171697 0 -0.0354191 0.109049 0.0271189 0.180828L3.75807 4.5L0.0271189 8.81917C0.0131098 8.83517 0.00412244 8.85474 0.00122347 8.87555C-0.00167549 8.89636 0.00163569 8.91755 0.0107643 8.93658C0.0198928 8.95562 0.0344553 8.97172 0.0527225 8.98296C0.0709897 8.9942 0.0921944 9.00011 0.113819 9H1.24803C1.31483 9 1.37879 8.97101 1.42285 8.92132L4.5 5.35859L7.57715 8.92132C7.61979 8.97101 7.68375 9 7.75197 9H8.88618C8.98283 9 9.03542 8.89095 8.97288 8.81917L5.24193 4.5Z" fill="#DA1E1E"/>
</svg>
