<svg  width="19" height="18" viewBox="0 0 19 18" fill="none" xmlns="http://www.w3.org/2000/svg">
<path fill-rule="evenodd" clip-rule="evenodd" d="M0 0H19V18H0V0ZM12.6469 7.16138C13.8625 6.76837 13.6468 6.11137 13.2446 5.625H5.86585C5.36275 6.13088 5.03025 6.8205 6.34838 7.20675C6.30535 7.62517 6.35563 8.04749 6.49595 8.44632C6.63628 8.84514 6.86352 9.21158 7.16294 9.52186C7.46236 9.83214 7.82727 10.0793 8.23402 10.2474C8.64076 10.4155 9.08026 10.5007 9.524 10.4976C9.96774 10.4944 10.4058 10.4029 10.8099 10.229C11.2139 10.0551 11.5748 9.80276 11.8693 9.48824C12.1637 9.17371 12.3851 8.80407 12.519 8.40328C12.653 8.0025 12.6966 7.57951 12.6469 7.16175V7.16138ZM11.8703 7.356C11.2488 7.4475 10.4381 7.5 9.39233 7.5C8.44946 7.5 7.70727 7.45762 7.12817 7.38188C7.11146 7.68782 7.16087 7.99378 7.27339 8.28099C7.3859 8.56821 7.55914 8.83063 7.78249 9.05217C8.00584 9.27372 8.27459 9.44971 8.57228 9.56938C8.86996 9.68905 9.1903 9.74987 9.51367 9.7481C9.83704 9.74634 10.1566 9.68203 10.4528 9.55912C10.749 9.43621 11.0156 9.25729 11.2363 9.03333C11.4569 8.80936 11.627 8.54506 11.736 8.25664C11.845 7.96822 11.8907 7.66174 11.8703 7.356ZM9.10417 12.0233V13.5641C8.92677 13.6237 8.76683 13.7224 8.63747 13.8519C8.50811 13.9814 8.41302 14.1382 8.36 14.3092L6.57202 13.8555C6.78577 13.3655 7.13264 12.9378 7.57739 12.6159C8.02214 12.294 8.54891 12.0894 9.10417 12.0229V12.0233ZM9.89583 12.0233V13.5641C10.2537 13.6841 10.5331 13.9616 10.64 14.3092L12.428 13.8555C12.2142 13.3655 11.8674 12.9378 11.4226 12.6159C10.9779 12.294 10.4511 12.0894 9.89583 12.0229V12.0233ZM12.6358 14.5789L10.5759 15.102C10.4803 15.2959 10.3282 15.4599 10.1377 15.5748C9.94711 15.6898 9.7259 15.7508 9.5 15.7508C9.2741 15.7508 9.05289 15.6898 8.86232 15.5748C8.67176 15.4599 8.51974 15.2959 8.42412 15.102L6.36421 14.5789C6.34358 14.7184 6.33327 14.8591 6.33333 15V15.375C6.33333 15.4745 6.29163 15.5698 6.2174 15.6402C6.14316 15.7105 6.04248 15.75 5.9375 15.75C5.83252 15.75 5.73184 15.7105 5.6576 15.6402C5.58337 15.5698 5.54167 15.4745 5.54167 15.375V15.1474C5.44415 15.2255 5.32812 15.2801 5.20349 15.3065C5.07886 15.3328 4.94934 15.3302 4.826 15.2989L4.06125 15.1046C3.96082 15.0791 3.86667 15.0351 3.78418 14.9752C3.70169 14.9152 3.63249 14.8404 3.58051 14.7551C3.52854 14.6698 3.49481 14.5756 3.48126 14.4779C3.46771 14.3803 3.4746 14.281 3.50154 14.1859L3.80871 13.0995C3.83562 13.0044 3.88206 12.9152 3.94537 12.837C4.00867 12.7589 4.08761 12.6933 4.17767 12.6441C4.26772 12.5948 4.36714 12.5629 4.47023 12.55C4.57332 12.5372 4.67807 12.5437 4.7785 12.5693L5.54325 12.7631C5.65283 12.7909 5.7548 12.8407 5.84223 12.9092C5.92966 12.9776 6.0005 13.0631 6.04992 13.1599C6.39439 12.5802 6.8955 12.0977 7.50181 11.7621C8.10811 11.4264 8.79777 11.2497 9.5 11.25C10.2019 11.2498 10.8912 11.4264 11.4972 11.7617C12.1033 12.0971 12.6043 12.5791 12.9489 13.1584C12.9985 13.0621 13.0694 12.977 13.1567 12.9088C13.2441 12.8407 13.3459 12.7911 13.4552 12.7635L14.2199 12.5693C14.3204 12.5437 14.4251 12.5372 14.5283 12.5501C14.6314 12.5629 14.7308 12.5949 14.8209 12.6442C14.9109 12.6935 14.9899 12.7591 15.0531 12.8373C15.1164 12.9155 15.1628 13.0047 15.1897 13.0999L15.4969 14.1863C15.5238 14.2814 15.5307 14.3807 15.5171 14.4784C15.5035 14.5761 15.4698 14.6702 15.4178 14.7556C15.3657 14.8409 15.2965 14.9157 15.214 14.9756C15.1314 15.0356 15.0372 15.0795 14.9368 15.105L14.1724 15.2992C14.0494 15.3306 13.9203 15.3333 13.796 15.3072C13.6716 15.281 13.5558 15.2269 13.4583 15.1493V15.375C13.4583 15.4745 13.4166 15.5698 13.3424 15.6402C13.2682 15.7105 13.1675 15.75 13.0625 15.75C12.9575 15.75 12.8568 15.7105 12.7826 15.6402C12.7084 15.5698 12.6667 15.4745 12.6667 15.375V15C12.6667 14.8571 12.656 14.7165 12.6358 14.5789ZM9.5 15C9.60498 15 9.70566 14.9605 9.7799 14.8902C9.85413 14.8198 9.89583 14.7245 9.89583 14.625C9.89583 14.5255 9.85413 14.4302 9.7799 14.3598C9.70566 14.2895 9.60498 14.25 9.5 14.25C9.39502 14.25 9.29434 14.2895 9.2201 14.3598C9.14587 14.4302 9.10417 14.5255 9.10417 14.625C9.10417 14.7245 9.14587 14.8198 9.2201 14.8902C9.29434 14.9605 9.39502 15 9.5 15ZM5.9375 3.5625C5.9375 3.39825 7.72508 2.25 9.5 2.25C11.2749 2.25 13.0625 3.39862 13.0625 3.5625C13.0625 4.1475 12.9968 4.494 12.9414 4.68263C12.9046 4.80638 12.7823 4.875 12.6465 4.875H6.35352C6.21775 4.875 6.09544 4.80638 6.05863 4.68263C6.00321 4.494 5.9375 4.1475 5.9375 3.5625ZM8.90625 3.375C8.80127 3.375 8.70059 3.41451 8.62635 3.48484C8.55212 3.55516 8.51042 3.65054 8.51042 3.75C8.51042 3.84946 8.55212 3.94484 8.62635 4.01516C8.70059 4.08549 8.80127 4.125 8.90625 4.125H10.0938C10.1987 4.125 10.2994 4.08549 10.3736 4.01516C10.4479 3.94484 10.4896 3.84946 10.4896 3.75C10.4896 3.65054 10.4479 3.55516 10.3736 3.48484C10.2994 3.41451 10.1987 3.375 10.0938 3.375H8.90625Z" fill="#1CA0E3"/>
</svg>
