<svg width="9" height="9" viewBox="0 0 12 10" fill="none" xmlns="http://www.w3.org/2000/svg">
    <path d="M5.9386 9.50098C5.68597 9.49962 5.43679 9.43828 5.20915 9.32142C4.9815 9.20456 4.78109 9.03511 4.62247 8.82535L0.45636 3.44147C0.212919 3.11734 0.0597246 2.72678 0.0142349 2.3143C-0.0312547 1.90181 0.0327897 1.48399 0.19907 1.10845C0.333929 0.782064 0.554004 0.503988 0.83301 0.307433C1.11202 0.110878 1.43816 0.00415198 1.77249 0H10.1047C10.439 0.00415198 10.7652 0.110878 11.0442 0.307433C11.3232 0.503988 11.5433 0.782064 11.6781 1.10845C11.8444 1.48399 11.9085 1.90181 11.863 2.3143C11.8175 2.72678 11.6643 3.11734 11.4208 3.44147L7.25473 8.82535C7.09611 9.03511 6.8957 9.20456 6.66805 9.32142C6.4404 9.43828 6.19123 9.49962 5.9386 9.50098Z" fill="#1CA0E3"/>
</svg>
