<svg width="11" height="12" viewBox="0 0 16 15" fill="none" xmlns="http://www.w3.org/2000/svg">
<path d="M7.96413 11.25L9.00449 10.0142L7.64126 8.39489L6.6009 9.63068V10.2273H7.46188V11.25H7.96413ZM11.9103 3.57955C11.8146 3.46591 11.716 3.46946 11.6144 3.5902L8.47534 7.31889C8.37369 7.43963 8.3707 7.55682 8.46637 7.67045C8.56203 7.78409 8.66069 7.78054 8.76233 7.6598L11.9013 3.93111C12.003 3.81037 12.006 3.69318 11.9103 3.57955ZM12.6278 9.90767V11.9318C12.6278 12.777 12.3752 13.4996 11.87 14.0998C11.3647 14.6999 10.7564 15 10.0448 15H2.58296C1.87145 15 1.26308 14.6999 0.757848 14.0998C0.252616 13.4996 0 12.777 0 11.9318V3.06818C0 2.22301 0.252616 1.50036 0.757848 0.900213C1.26308 0.300071 1.87145 0 2.58296 0H10.0448C10.4215 0 10.7713 0.0887784 11.0942 0.266335C11.1839 0.316051 11.2377 0.397727 11.2556 0.511364C11.2735 0.632102 11.2466 0.735085 11.1749 0.820312L10.7354 1.34233C10.6517 1.44176 10.5561 1.47017 10.4484 1.42756C10.3109 1.38494 10.1764 1.36364 10.0448 1.36364H2.58296C2.18834 1.36364 1.85052 1.53054 1.56951 1.86435C1.28849 2.19815 1.14798 2.59943 1.14798 3.06818V11.9318C1.14798 12.4006 1.28849 12.8018 1.56951 13.1357C1.85052 13.4695 2.18834 13.6364 2.58296 13.6364H10.0448C10.4395 13.6364 10.7773 13.4695 11.0583 13.1357C11.3393 12.8018 11.4798 12.4006 11.4798 11.9318V10.5895C11.4798 10.4972 11.5067 10.419 11.5605 10.3551L12.1345 9.6733C12.2242 9.56676 12.3288 9.5419 12.4484 9.59872C12.568 9.65554 12.6278 9.75852 12.6278 9.90767ZM11.7668 2.04545L14.3498 5.11364L8.32287 12.2727H5.73991V9.20455L11.7668 2.04545ZM15.7489 3.4517L14.9238 4.43182L12.3408 1.36364L13.1659 0.383523C13.3333 0.184659 13.5366 0.0852273 13.7758 0.0852273C14.0149 0.0852273 14.2182 0.184659 14.3857 0.383523L15.7489 2.00284C15.9163 2.2017 16 2.44318 16 2.72727C16 3.01136 15.9163 3.25284 15.7489 3.4517Z" fill="#0384C6"/>
</svg>
