<svg width="32" height="30" viewBox="0 0 32 30" fill="none" xmlns="http://www.w3.org/2000/svg">
<path d="M1.77734 6.66666H3.55512V8.33332H1.77734V6.66666Z" fill="#0384C6"/>
<path d="M6.22092 8.33332H27.5543C27.79 8.33332 28.0161 8.24553 28.1828 8.08925C28.3495 7.93297 28.4431 7.721 28.4431 7.49999C28.4431 7.27898 28.3495 7.06701 28.1828 6.91073C28.0161 6.75445 27.79 6.66666 27.5543 6.66666H6.22092C5.98517 6.66666 5.75908 6.75445 5.59238 6.91073C5.42568 7.06701 5.33203 7.27898 5.33203 7.49999C5.33203 7.721 5.42568 7.93297 5.59238 8.08925C5.75908 8.24553 5.98517 8.33332 6.22092 8.33332Z" fill="#0384C6"/>
<path d="M1.77734 11.6667H3.55512V13.3333H1.77734V11.6667Z" fill="#0384C6"/>
<path d="M27.5543 11.6667H6.22092C5.98517 11.6667 5.75908 11.7545 5.59238 11.9107C5.42568 12.067 5.33203 12.279 5.33203 12.5C5.33203 12.721 5.42568 12.933 5.59238 13.0892C5.75908 13.2455 5.98517 13.3333 6.22092 13.3333H27.5543C27.79 13.3333 28.0161 13.2455 28.1828 13.0892C28.3495 12.933 28.4431 12.721 28.4431 12.5C28.4431 12.279 28.3495 12.067 28.1828 11.9107C28.0161 11.7545 27.79 11.6667 27.5543 11.6667Z" fill="#0384C6"/>
<path d="M1.77734 16.6667H3.55512V18.3333H1.77734V16.6667Z" fill="#0384C6"/>
<path d="M27.5543 16.6667H6.22092C5.98517 16.6667 5.75908 16.7545 5.59238 16.9107C5.42568 17.067 5.33203 17.279 5.33203 17.5C5.33203 17.721 5.42568 17.933 5.59238 18.0892C5.75908 18.2455 5.98517 18.3333 6.22092 18.3333H27.5543C27.79 18.3333 28.0161 18.2455 28.1828 18.0892C28.3495 17.933 28.4431 17.721 28.4431 17.5C28.4431 17.279 28.3495 17.067 28.1828 16.9107C28.0161 16.7545 27.79 16.6667 27.5543 16.6667Z" fill="#0384C6"/>
<path d="M1.77734 21.6667H3.55512V23.3333H1.77734V21.6667Z" fill="#0384C6"/>
<path d="M27.5543 21.6667H6.22092C5.98517 21.6667 5.75908 21.7545 5.59238 21.9107C5.42568 22.067 5.33203 22.279 5.33203 22.5C5.33203 22.721 5.42568 22.933 5.59238 23.0892C5.75908 23.2455 5.98517 23.3333 6.22092 23.3333H27.5543C27.79 23.3333 28.0161 23.2455 28.1828 23.0892C28.3495 22.933 28.4431 22.721 28.4431 22.5C28.4431 22.279 28.3495 22.067 28.1828 21.9107C28.0161 21.7545 27.79 21.6667 27.5543 21.6667Z" fill="#0384C6"/>
</svg>
