<svg width="60" height="58" viewBox="0 0 60 58" fill="none" xmlns="http://www.w3.org/2000/svg">
    <path d="M26.1315 56.51C18.1041 49.3522 0.25 32.0038 0.25 22.2593C0.25 10.4366 13.4691 0.852661 29.7762 0.852661C46.0771 0.852661 59.3024 10.4366 59.3024 22.2593C59.3024 32.0038 41.3098 49.3522 33.4208 56.51C31.5293 58.2159 28.0231 58.2159 26.1315 56.51ZM29.7762 29.3949C35.2047 29.3949 39.6182 26.195 39.6182 22.2593C39.6182 18.3236 35.2047 15.1238 29.7762 15.1238C24.3477 15.1238 19.9341 18.3236 19.9341 22.2593C19.9341 26.195 24.3477 29.3949 29.7762 29.3949Z" fill="#1CA0E3" fill-opacity="0.1"/>
    <path d="M26.4664 56.1387L26.4643 56.1368C22.4593 52.5656 16.0078 46.4564 10.5619 40.0314C7.83852 36.8184 5.3765 33.5379 3.59787 30.4649C1.81163 27.3788 0.75 24.5613 0.75 22.2593C0.75 16.548 3.94196 11.3332 9.19143 7.52728C14.4403 3.72179 21.7165 1.35266 29.7762 1.35266C37.8328 1.35266 45.109 3.72178 50.3587 7.5273C55.609 11.3333 58.8024 16.5481 58.8024 22.2593C58.8024 24.5604 57.7329 27.3774 55.9357 30.4638C54.1463 33.5369 51.6713 36.8175 48.9391 40.0308C43.4757 46.456 37.0242 52.5655 33.0854 56.1392C32.2505 56.8918 31.0299 57.2894 29.7762 57.2894C28.5221 57.2894 27.3013 56.8916 26.4664 56.1387ZM29.7762 29.8949C32.5846 29.8949 35.1504 29.0679 37.0264 27.7078C38.9016 26.3483 40.1182 24.4277 40.1182 22.2593C40.1182 20.091 38.9016 18.1704 37.0264 16.8109C35.1504 15.4508 32.5846 14.6238 29.7762 14.6238C26.9678 14.6238 24.402 15.4508 22.526 16.8109C20.6507 18.1704 19.4341 20.091 19.4341 22.2593C19.4341 24.4277 20.6507 26.3483 22.526 27.7078C24.402 29.0679 26.9678 29.8949 29.7762 29.8949Z" stroke="#1CA0E3" stroke-opacity="0.28"/>
</svg>
