<svg width="140" height="37" viewBox="0 0 140 37" fill="none" xmlns="http://www.w3.org/2000/svg">
<path d="M18.9927 0.918819C16.8788 1.11311 14.9884 1.91805 13.5286 3.23995C13.1976 3.53833 12.7269 4.04142 12.6193 4.20796C12.5913 4.25306 12.4677 4.27041 12.029 4.29817C8.11239 4.53063 5.36042 5.81437 4.10009 8.00019C3.86477 8.4096 3.70923 8.75308 3.59357 9.11045L3.50582 9.39495L3.10299 9.38801C2.77595 9.38454 2.66427 9.39842 2.5167 9.45393C2.3133 9.53373 2.07798 9.72456 1.97827 9.88416C1.89053 10.0368 3.83972e-05 18.5199 3.83972e-05 18.7801C-0.00394998 19.1965 0.303155 19.5712 0.741876 19.6822C0.973202 19.7412 3.34629 19.9424 3.79697 19.9424C4.2676 19.9389 4.58667 19.7793 4.7821 19.4428C4.88181 19.2728 4.90175 19.1271 5.35643 14.9809C5.61567 12.6251 5.83104 10.5954 5.83104 10.4705C5.83104 10.0646 5.55186 9.71415 5.11712 9.57884C4.8858 9.50945 4.8858 9.56843 5.10117 8.94738C5.44018 7.95855 5.99856 7.12933 6.76831 6.46317C7.66171 5.69293 8.91805 5.14821 10.3579 4.90881C11.1356 4.77697 12.2124 4.69717 12.2124 4.7735C12.2124 4.78738 12.1885 4.82901 12.1566 4.86718C12.0569 4.99555 11.7019 5.6964 11.5783 6.02601C11.2393 6.90381 8.94995 14.5334 7.99274 17.9821C7.24293 20.671 6.89195 21.9894 6.52103 23.5161C6.40138 24.0226 6.28971 24.4667 6.28173 24.5083C6.26578 24.5743 6.28572 24.5812 6.57288 24.602C6.74039 24.6159 7.47027 24.6263 8.19216 24.6263C9.23313 24.6263 9.50035 24.6367 9.50035 24.6714C9.50035 24.6957 9.26902 27.2007 8.98186 30.2401C8.42349 36.2042 8.43944 35.9301 8.64285 36.2354C8.76649 36.4193 9.02573 36.6206 9.25706 36.7142L9.44052 36.7871H17.4572H25.4738L25.6732 36.7004C25.9364 36.5893 26.1598 36.3881 26.2834 36.1522C26.3911 35.9405 26.3712 36.2285 27.0532 26.5589C27.129 25.5319 27.1968 24.6784 27.2087 24.6645C27.2207 24.6471 34.3798 24.6471 43.1224 24.6645C51.8649 24.6784 62.793 24.6922 67.4116 24.6922C74.8419 24.6957 75.8071 24.6888 75.8031 24.6437C75.7951 24.5986 79.4246 24.5916 107.898 24.5916H140V24.5188C140 24.3973 139.729 22.9123 139.577 22.215C137.922 14.5264 133.794 7.27852 127.66 1.28312L127.261 0.894531L73.1947 0.90147C43.4614 0.90147 19.0685 0.91188 18.9927 0.918819Z" fill="#1CA0E3"/>
</svg>
