<svg width="34" height="34" viewBox="0 0 34 34" fill="none" xmlns="http://www.w3.org/2000/svg">
<path d="M31.875 0H2.125C1.56141 0 1.02091 0.298511 0.622398 0.829864C0.223883 1.36122 0 2.08189 0 2.83333V31.1667C0 31.9181 0.223883 32.6388 0.622398 33.1701C1.02091 33.7015 1.56141 34 2.125 34H31.875C32.4386 34 32.9791 33.7015 33.3776 33.1701C33.7761 32.6388 34 31.9181 34 31.1667V2.83333C34 2.08189 33.7761 1.36122 33.3776 0.829864C32.9791 0.298511 32.4386 0 31.875 0V0ZM30.2387 31.1667H3.88875L11.3262 20.91L9.79625 18.9408L2.125 29.5233V4.98667L15.3319 22.5108C15.73 23.0385 16.2686 23.3347 16.83 23.3347C17.3914 23.3347 17.93 23.0385 18.3281 22.5108L31.875 4.5475V29.3392L24.055 18.9125L22.5569 20.91L30.2387 31.1667ZM3.51687 2.83333H30.1537L16.83 20.4992L3.51687 2.83333Z" fill="#939FAA"/>
</svg>
