<svg width="73" height="75" viewBox="0 0 73 75" fill="none" xmlns="http://www.w3.org/2000/svg">
<path d="M57.4115 14.0625C61.8219 14.0625 65.3959 17.7344 65.3959 22.2656V52.7344C65.3959 57.2656 61.8219 60.9375 57.4115 60.9375H15.5886C13.471 60.9375 11.4402 60.0732 9.94282 58.5349C8.44546 56.9965 7.60425 54.91 7.60425 52.7344V22.2656C7.60425 17.7344 11.1782 14.0625 15.5886 14.0625H57.4115ZM61.5938 28.6734L37.4156 42.3359C37.1669 42.4765 36.8906 42.558 36.6072 42.5745C36.3237 42.591 36.0403 42.542 35.7777 42.4313L35.5845 42.3375L11.4063 28.6719V52.7344C11.4063 53.874 11.847 54.9669 12.6313 55.7727C13.4156 56.5785 14.4794 57.0312 15.5886 57.0312H57.4115C58.5207 57.0312 59.5845 56.5785 60.3689 55.7727C61.1532 54.9669 61.5938 53.874 61.5938 52.7344V28.6734ZM57.4115 17.9688H15.5886C14.4794 17.9688 13.4156 18.4215 12.6313 19.2273C11.847 20.0331 11.4063 21.126 11.4063 22.2656V24.2172L36.5001 38.3953L61.5938 24.2156V22.2656C61.5938 21.126 61.1532 20.0331 60.3689 19.2273C59.5845 18.4215 58.5207 17.9688 57.4115 17.9688Z" fill="#939FAA"/>
</svg>



