<svg width="68" height="57" viewBox="0 0 68 57" fill="none" xmlns="http://www.w3.org/2000/svg">
<path d="M46.75 39.1277L51.7225 17.2839C55.08 15.7026 57.375 12.6871 57.375 9.19355C57.375 6.75527 56.2556 4.41685 54.263 2.69273C52.2704 0.968603 49.5679 0 46.75 0C43.9321 0 41.2296 0.968603 39.237 2.69273C37.2444 4.41685 36.125 6.75527 36.125 9.19355C36.125 12.6871 38.42 15.7026 41.7775 17.2839L46.75 39.1277ZM46.75 3.67742C50.2775 3.67742 53.125 6.14129 53.125 9.19355C53.125 12.2458 50.2775 14.7097 46.75 14.7097C43.2225 14.7097 40.375 12.2458 40.375 9.19355C40.375 6.14129 43.2225 3.67742 46.75 3.67742ZM54.06 21.329L68 16.4381V49.5348L47.26 57L21.25 49.5348L0 56.8897V23.7929L21.25 16.4381L39.3975 21.6232L46.75 48.4684L54.06 21.329Z" fill="#0384C6"/>
</svg>

