<svg width="22" height="19" viewBox="0 0 22 19" fill="none" xmlns="http://www.w3.org/2000/svg">
<path d="M0 1.35097C0 0.992668 0.131696 0.649045 0.366116 0.395689C0.600537 0.142334 0.918479 0 1.25 0H23.75C24.0815 0 24.3995 0.142334 24.6339 0.395689C24.8683 0.649045 25 0.992668 25 1.35097C25 1.70927 24.8683 2.05289 24.6339 2.30624C24.3995 2.5596 24.0815 2.70193 23.75 2.70193H1.25C0.918479 2.70193 0.600537 2.5596 0.366116 2.30624C0.131696 2.05289 0 1.70927 0 1.35097ZM0 9.5C0 9.1417 0.131696 8.79808 0.366116 8.54472C0.600537 8.29137 0.918479 8.14903 1.25 8.14903H23.75C24.0815 8.14903 24.3995 8.29137 24.6339 8.54472C24.8683 8.79808 25 9.1417 25 9.5C25 9.8583 24.8683 10.2019 24.6339 10.4553C24.3995 10.7086 24.0815 10.851 23.75 10.851H1.25C0.918479 10.851 0.600537 10.7086 0.366116 10.4553C0.131696 10.2019 0 9.8583 0 9.5ZM1.25 16.2981C0.918479 16.2981 0.600537 16.4404 0.366116 16.6938C0.131696 16.9471 0 17.2907 0 17.649C0 18.0073 0.131696 18.351 0.366116 18.6043C0.600537 18.8577 0.918479 19 1.25 19H23.75C24.0815 19 24.3995 18.8577 24.6339 18.6043C24.8683 18.351 25 18.0073 25 17.649C25 17.2907 24.8683 16.9471 24.6339 16.6938C24.3995 16.4404 24.0815 16.2981 23.75 16.2981H1.25Z" fill="#0384C6"/>
</svg>
