<svg width="7" height="12" viewBox="0 0 7 12" fill="none" xmlns="http://www.w3.org/2000/svg">
<path d="M0.292444 0.293762C0.199741 0.386276 0.126193 0.496165 0.0760117 0.617138C0.0258302 0.738111 0 0.867794 0 0.998762C0 1.12973 0.0258302 1.25941 0.0760117 1.38039C0.126193 1.50136 0.199741 1.61125 0.292444 1.70376L4.17244 5.58376L0.292444 9.46376C0.105467 9.65074 0.000423431 9.90434 0.000423431 10.1688C0.000423431 10.4332 0.105467 10.6868 0.292444 10.8738C0.479422 11.0607 0.733018 11.1658 0.997444 11.1658C1.26187 11.1658 1.51547 11.0607 1.70244 10.8738L6.29244 6.28376C6.38515 6.19125 6.4587 6.08136 6.50888 5.96039C6.55906 5.83941 6.58489 5.70973 6.58489 5.57876C6.58489 5.44779 6.55906 5.31811 6.50888 5.19714C6.4587 5.07616 6.38515 4.96628 6.29244 4.87376L1.70244 0.283762C1.32244 -0.0962379 0.682444 -0.0962377 0.292444 0.293762Z" fill="#ABA7A7" fill-opacity="0.57"/>
</svg>
