<svg width="19" height="18" viewBox="0 0 19 18" fill="none" xmlns="http://www.w3.org/2000/svg">
<path d="M16.6232 18C17.2536 18 17.8581 17.8104 18.3039 17.4728C18.7496 17.1352 19 16.6774 19 16.2V1.8C19 1.32261 18.7496 0.864773 18.3039 0.527208C17.8581 0.189642 17.2536 0 16.6232 0H2.37678C1.74642 0 1.14188 0.189642 0.696143 0.527208C0.25041 0.864773 0 1.32261 0 1.8V16.2C0 16.6774 0.25041 17.1352 0.696143 17.4728C1.14188 17.8104 1.74642 18 2.37678 18H16.6232ZM5.94196 2.7H13.0723V4.5H5.94196V2.7ZM12.181 8.325C12.1782 8.86149 11.8956 9.37541 11.3948 9.75486C10.894 10.1343 10.2155 10.3485 9.50713 10.3509C8.03947 10.3509 6.83325 9.4374 6.83325 8.325C6.83325 7.2126 8.03947 6.3 9.50713 6.3C10.2154 6.30213 10.8939 6.51616 11.3947 6.89546C11.8956 7.27476 12.1782 7.78859 12.181 8.325ZM4.15937 14.5692C4.15937 13.0716 6.56943 11.5317 9.50713 11.5317C12.4448 11.5317 14.8549 13.0716 14.8549 14.5692V15.0759H4.15937V14.5692Z" fill="#1CA0E3"/>
</svg>
