<svg width="40" height="40" viewBox="0 0 40 40" fill="none" xmlns="http://www.w3.org/2000/svg">
<path d="M38.2552 6.33421L32.9301 1.01487C32.2801 0.364955 31.4101 0 30.4901 0C29.5701 0 28.7001 0.359955 28.0501 1.01487L22.3151 6.73916C21.6651 7.38908 21.3001 8.26397 21.3001 9.18385C21.3001 10.1087 21.6601 10.9736 22.3151 11.6285L26.7951 16.113C25.7745 18.4906 24.3081 20.6509 22.4751 22.4772C20.6401 24.322 18.4951 25.7768 16.1151 26.8067L11.6351 22.3222C10.985 21.6723 10.115 21.3073 9.19504 21.3073C8.74125 21.3057 8.2917 21.3946 7.87271 21.5688C7.45373 21.7431 7.07374 21.9992 6.75503 22.3222L1.015 28.0465C0.365002 28.6964 0 29.5713 0 30.4912C0 31.4161 0.360002 32.281 1.015 32.9359L6.33503 38.2552C7.44503 39.3651 8.97504 40 10.545 40C10.87 40 11.185 39.975 11.5051 39.92C18.1251 38.8301 24.6951 35.3056 30.0001 30.0063C35.3002 24.6969 38.8202 18.1277 39.9202 11.5036C40.2352 9.6238 39.6052 7.68904 38.2552 6.33421V6.33421ZM36.3752 10.9086C35.4002 16.8029 32.2301 22.6822 27.4551 27.4566C22.6801 32.231 16.8051 35.4006 10.91 36.3755C10.17 36.5004 9.41004 36.2505 8.87004 35.7155L3.64502 30.4912L9.18504 24.9469L15.1751 30.9461L15.2201 30.9911L16.3001 30.5912C19.5747 29.3874 22.5484 27.486 25.0151 25.0188C27.4817 22.5516 29.3823 19.5776 30.5851 16.303L30.9851 15.2231L24.9451 9.18885L30.4851 3.64454L35.7102 8.86889C36.2502 9.40882 36.5002 10.1687 36.3752 10.9086Z" fill="#939FAA"/>
</svg>
