<svg width="19" height="18" viewBox="0 0 28 28" fill="none" xmlns="http://www.w3.org/2000/svg">
<path d="M26.07 19L20 13L26.07 7L27.5 8.41L22.86 13L27.5 17.59L26.07 19ZM20 28H18V23C18 21.6739 17.4732 20.4021 16.5355 19.4645C15.5979 18.5268 14.3261 18 13 18H7C5.67392 18 4.40215 18.5268 3.46447 19.4645C2.52678 20.4021 2 21.6739 2 23V28H0V23C0 21.1435 0.737498 19.363 2.05025 18.0503C3.36301 16.7375 5.14348 16 7 16H13C14.8565 16 16.637 16.7375 17.9497 18.0503C19.2625 19.363 20 21.1435 20 23V28ZM10 2C10.9889 2 11.9556 2.29324 12.7779 2.84265C13.6001 3.39206 14.241 4.17295 14.6194 5.08658C14.9978 6.00021 15.0969 7.00555 14.9039 7.97545C14.711 8.94536 14.2348 9.83627 13.5355 10.5355C12.8363 11.2348 11.9454 11.711 10.9755 11.9039C10.0055 12.0969 9.00021 11.9978 8.08658 11.6194C7.17295 11.241 6.39206 10.6001 5.84265 9.77785C5.29324 8.95561 5 7.98891 5 7C5 5.67392 5.52678 4.40215 6.46447 3.46447C7.40215 2.52678 8.67392 2 10 2V2ZM10 0C8.61553 0 7.26215 0.410543 6.11101 1.17971C4.95986 1.94888 4.06266 3.04213 3.53284 4.32122C3.00303 5.6003 2.86441 7.00777 3.1345 8.36563C3.4046 9.7235 4.07128 10.9708 5.05025 11.9497C6.02922 12.9287 7.2765 13.5954 8.63437 13.8655C9.99223 14.1356 11.3997 13.997 12.6788 13.4672C13.9579 12.9373 15.0511 12.0401 15.8203 10.889C16.5895 9.73785 17 8.38447 17 7C17 5.14348 16.2625 3.36301 14.9497 2.05025C13.637 0.737498 11.8565 0 10 0V0Z" fill="#1CA0E3"/>
</svg>
