<svg width="51" height="55" viewBox="0 0 51 55" fill="none" xmlns="http://www.w3.org/2000/svg">
<path d="M11.9 12.0115C5.3601 12.0115 0 17.973 0 25.2494C0 28.0689 0.806933 30.6894 2.17317 32.8432L10.4482 48.8021C11.607 50.4912 12.3777 50.1707 13.3416 48.7135L22.4683 31.3854C22.6525 31.0124 22.797 30.6166 22.9234 30.2121C23.5025 28.6373 23.8003 26.9515 23.8 25.2494C23.8 17.973 18.4416 12.0115 11.9 12.0115ZM11.9 18.2145C15.4224 18.2145 18.224 21.3318 18.224 25.25C18.224 29.1683 15.4224 32.2844 11.9 32.2844C8.37817 32.2844 5.576 29.1677 5.576 25.25C5.576 21.3318 8.37817 18.2145 11.9 18.2145V18.2145Z" fill="#0384C6"/>
<path fill-rule="evenodd" clip-rule="evenodd" d="M49.9852 15.4329C48.7119 15.4645 47.4352 15.5245 46.1562 15.6301L46.3534 19.1273C47.582 19.0281 48.8126 18.9642 50.0441 18.9358L49.9852 15.4329ZM43.1994 15.9513C41.233 16.2237 39.2497 16.6119 37.289 17.2359L38.0274 20.625C39.809 20.0586 41.6552 19.6925 43.5303 19.4327L43.1994 15.9513ZM34.3531 18.4092C33.7657 18.6985 33.1969 19.0329 32.6509 19.4099L32.6486 19.4131L32.6452 19.4144C31.866 19.9618 31.0449 20.6566 30.3746 21.6662C29.8889 22.3976 29.4917 23.3225 29.3988 24.4162L32.2859 24.7734C32.3075 24.5167 32.4253 24.1779 32.6373 23.8592H32.6384V23.858C32.9801 23.3421 33.4924 22.8737 34.1015 22.445L34.1038 22.4438C34.538 22.1448 34.9902 21.8795 35.457 21.6498L34.3531 18.4092ZM32.8668 26.3336L30.9951 29.0109C31.4388 29.4636 31.904 29.8113 32.3534 30.1021L32.359 30.1052L32.3647 30.109C33.8562 31.0554 35.3941 31.5896 36.8198 32.0966L37.6392 28.7346C36.2141 28.2276 34.8705 27.7383 33.719 27.0088C33.3892 26.7951 33.1002 26.5719 32.8668 26.3336V26.3336ZM40.4233 29.6804L39.6231 33.048L40.0017 33.1795L40.4663 33.3452C42.0043 33.9034 43.4776 34.4995 44.7945 35.3245L46.1307 32.2142C44.5384 31.216 42.8854 30.5635 41.2925 29.9857L41.288 29.9845L40.8109 29.8144L40.4233 29.6804ZM48.8479 34.5482L46.7949 37.0264C47.2799 37.6124 47.6432 38.3173 47.82 39.0456L47.8211 39.0494L47.8222 39.055C48.033 39.9053 48.0336 40.9054 47.8687 41.9157L50.7156 42.5934C50.948 41.1672 50.9854 39.6012 50.6034 38.0556C50.2708 36.6888 49.6361 35.5015 48.8479 34.5482V34.5482ZM46.8748 44.0272C46.561 44.3968 46.2143 44.7298 45.84 45.021H45.8389C44.8189 45.8213 43.6357 46.4244 42.3788 46.9428L43.3161 50.258C44.6908 49.6909 46.1024 48.9955 47.4216 47.96L47.425 47.9568L47.4267 47.9556C47.9685 47.5324 48.4696 47.0478 48.9221 46.5098L46.8748 44.0272ZM39.7121 47.8765C37.8914 48.4227 36.0305 48.8387 34.1469 49.1915L34.5911 52.6552C36.5297 52.2917 38.4762 51.8574 40.4108 51.2771L39.7121 47.8765ZM31.313 49.6694C29.4169 49.9583 27.5106 50.1941 25.5987 50.3952L25.8492 53.8861C27.7906 53.6825 29.7354 53.4429 31.6773 53.1464L31.313 49.6694ZM22.7251 50.6702C20.8092 50.8396 18.8888 50.9774 16.9667 51.0937L17.1117 54.5935C19.0526 54.4765 20.9951 54.3368 22.9371 54.1649L22.7251 50.6702ZM14.0784 51.2518C12.9263 51.3118 11.7715 51.3611 10.6138 51.4067L10.709 54.9096C11.8739 54.8649 13.0386 54.8131 14.203 54.7541L14.0784 51.2518Z" fill="#0384C6"/>
</svg>


