<svg width="18" height="21" viewBox="0 0 18 21" fill="none" xmlns="http://www.w3.org/2000/svg">
    <path d="M17.3383 19.2574L11.8169 12.8319C12.6737 11.5428 13.1372 9.96671 13.1372 8.30899C13.1372 6.32467 12.4718 4.46406 11.2684 3.06119C10.0651 1.65831 8.46201 0.886353 6.75904 0.886353C5.05606 0.886353 3.45301 1.66078 2.24967 3.06119C1.04419 4.46159 0.380859 6.32467 0.380859 8.30899C0.380859 10.2908 1.04632 12.1564 2.24967 13.5568C3.45301 14.9597 5.05394 15.7316 6.75904 15.7316C8.1835 15.7316 9.53567 15.1923 10.6433 14.1976L16.1647 20.6207C16.1809 20.6395 16.2001 20.6545 16.2213 20.6647C16.2425 20.6749 16.2651 20.6801 16.288 20.6801C16.3109 20.6801 16.3336 20.6749 16.3548 20.6647C16.3759 20.6545 16.3952 20.6395 16.4113 20.6207L17.3383 19.5444C17.3545 19.5255 17.3674 19.5032 17.3761 19.4786C17.3849 19.4539 17.3894 19.4275 17.3894 19.4009C17.3894 19.3742 17.3849 19.3478 17.3761 19.3232C17.3674 19.2986 17.3545 19.2762 17.3383 19.2574ZM10.1267 12.2281C9.22527 13.2747 8.03042 13.8512 6.75904 13.8512C5.48765 13.8512 4.29281 13.2747 3.39136 12.2281C2.49204 11.1791 1.99666 9.78857 1.99666 8.30899C1.99666 6.82941 2.49204 5.43643 3.39136 4.38984C4.29281 3.34325 5.48765 2.76675 6.75904 2.76675C8.03042 2.76675 9.22739 3.34077 10.1267 4.38984C11.026 5.4389 11.5214 6.82941 11.5214 8.30899C11.5214 9.78857 11.026 11.1816 10.1267 12.2281Z" fill="black" fill-opacity="0.4"/>
</svg>
