<svg width="546" height="352" viewBox="0 0 546 352" fill="none" xmlns="http://www.w3.org/2000/svg">
<path d="M108.787 352C168.868 352 217.574 348.572 217.574 344.344C217.574 340.116 168.868 336.688 108.787 336.688C48.7055 336.688 0 340.116 0 344.344C0 348.572 48.7055 352 108.787 352Z" fill="#E6E6E6"/>
<path d="M83.1548 78.1026C102.087 70.6411 125.667 75.3687 148.696 78.6498C148.91 74.6764 151.508 69.8405 148.787 67.0684C145.481 63.7006 145.786 60.162 147.775 56.603C152.862 47.502 145.574 37.8181 138.215 29.766C136.557 27.9552 134.46 26.5325 132.097 25.6133C129.734 24.6941 127.17 24.3044 124.613 24.4759L110.982 25.3781C107.665 25.5977 104.499 26.7506 101.909 28.6827C99.3185 30.6149 97.4266 33.234 96.4865 36.1896C93.2317 40.2914 91.4896 44.3818 92.5864 48.4509C87.7112 51.538 86.8921 55.2645 89.0829 59.4654C90.9405 62.1105 90.9207 64.6852 88.9984 67.1887C86.4737 70.3804 84.54 73.9393 83.2766 77.7195L83.1548 78.1026Z" fill="#2F2E41"/>
<path d="M533.062 304.298H147.2C143.769 304.298 140.478 303.035 138.052 300.787C135.625 298.539 134.262 295.489 134.262 292.31C274.137 277.247 411.383 277.247 546 292.31C546 295.489 544.637 298.539 542.21 300.787C539.784 303.035 536.493 304.298 533.062 304.298Z" fill="#2F2E41"/>
<path d="M546 293.015L134.262 292.31L181.981 217.91L182.209 217.557V53.5889C182.209 51.5987 182.632 49.6279 183.454 47.7892C184.276 45.9504 185.481 44.2797 186.999 42.8724C188.518 41.4651 190.321 40.3488 192.306 39.5872C194.29 38.8257 196.417 38.4338 198.565 38.434H479.414C481.562 38.4338 483.689 38.8257 485.673 39.5872C487.658 40.3488 489.461 41.4651 490.979 42.8724C492.498 44.2797 493.703 45.9504 494.525 47.7892C495.347 49.6279 495.77 51.5987 495.769 53.5889V218.686L546 293.015Z" fill="#3F3D56"/>
<path d="M198.192 49.0121C196.78 49.0136 195.425 49.5341 194.427 50.4596C193.428 51.385 192.866 52.6398 192.865 53.9486V203.453C192.866 204.762 193.428 206.017 194.427 206.942C195.425 207.868 196.78 208.388 198.192 208.39H482.07C483.483 208.388 484.837 207.867 485.836 206.942C486.834 206.017 487.396 204.762 487.398 203.453V53.9486C487.396 52.6398 486.834 51.3851 485.836 50.4596C484.837 49.5342 483.483 49.0136 482.07 49.0121H198.192Z" fill="white"/>
<path d="M199.382 228.136C198.945 228.136 198.518 228.253 198.151 228.471C197.783 228.689 197.49 229 197.307 229.367L182.604 258.986C182.444 259.308 182.374 259.663 182.4 260.017C182.426 260.371 182.549 260.713 182.755 261.011C182.962 261.31 183.246 261.556 183.582 261.726C183.918 261.896 184.295 261.986 184.678 261.986H493.889C494.278 261.986 494.66 261.894 495 261.718C495.34 261.542 495.626 261.289 495.831 260.982C496.035 260.675 496.152 260.325 496.169 259.965C496.187 259.605 496.104 259.246 495.93 258.924L479.948 229.305C479.759 228.953 479.468 228.657 479.107 228.45C478.746 228.243 478.33 228.134 477.906 228.136H199.382Z" fill="#2F2E41"/>
<path d="M338.99 46.5439C340.881 46.5439 342.414 45.1231 342.414 43.3705C342.414 41.6178 340.881 40.197 338.99 40.197C337.098 40.197 335.565 41.6178 335.565 43.3705C335.565 45.1231 337.098 46.5439 338.99 46.5439Z" fill="white"/>
<path d="M308.597 267.627C308.095 267.628 307.607 267.782 307.209 268.065C306.81 268.347 306.523 268.744 306.392 269.193L302.704 281.887C302.613 282.2 302.601 282.529 302.669 282.848C302.737 283.166 302.883 283.466 303.096 283.724C303.309 283.981 303.584 284.19 303.898 284.334C304.212 284.478 304.558 284.552 304.908 284.552H375.051C375.415 284.552 375.774 284.472 376.097 284.317C376.421 284.163 376.7 283.939 376.911 283.664C377.122 283.389 377.259 283.072 377.311 282.738C377.362 282.404 377.327 282.063 377.208 281.745L372.466 269.051C372.311 268.635 372.019 268.275 371.633 268.02C371.246 267.765 370.783 267.628 370.309 267.627H308.597Z" fill="#2F2E41"/>
<path d="M495.769 215.089V217.91H181.981L182.217 217.558V215.089H495.769Z" fill="#2F2E41"/>
<path d="M487.017 98.7295C516.44 98.7295 540.292 76.6281 540.292 49.3647C540.292 22.1013 516.44 0 487.017 0C457.594 0 433.742 22.1013 433.742 49.3647C433.742 76.6281 457.594 98.7295 487.017 98.7295Z" fill="#1CA0E3"/>
<path d="M509.088 70.8736H464.946C464.139 70.8729 463.365 70.5754 462.795 70.0466C462.224 69.5177 461.903 68.8007 461.902 68.0528V43.3704C461.903 42.6225 462.224 41.9055 462.795 41.3766C463.365 40.8478 464.139 40.5504 464.946 40.5496H509.088C509.895 40.5504 510.669 40.8478 511.24 41.3766C511.811 41.9055 512.132 42.6225 512.133 43.3704V68.0528C512.132 68.8007 511.811 69.5177 511.24 70.0466C510.669 70.5755 509.895 70.8729 509.088 70.8736ZM464.946 43.3704V68.0528H509.09L509.088 43.3704L464.946 43.3704Z" fill="white"/>
<path d="M500.716 43.3705H473.318V32.0871C473.318 23.9145 479.079 17.9829 487.017 17.9829C494.955 17.9829 500.716 23.9145 500.716 32.0871L500.716 43.3705ZM476.362 40.5497H497.672V32.0871C497.672 25.4437 493.291 20.8038 487.017 20.8038C480.744 20.8038 476.362 25.4438 476.362 32.0871L476.362 40.5497Z" fill="white"/>
<path d="M487.017 57.8272C488.699 57.8272 490.061 56.5643 490.061 55.0064C490.061 53.4485 488.699 52.1855 487.017 52.1855C485.336 52.1855 483.973 53.4485 483.973 55.0064C483.973 56.5643 485.336 57.8272 487.017 57.8272Z" fill="white"/>
<path d="M449.827 157.679H230.435C229.358 157.678 228.326 157.281 227.564 156.575C226.802 155.87 226.374 154.913 226.373 153.915V103.487C226.374 102.489 226.802 101.532 227.564 100.826C228.326 100.121 229.358 99.7237 230.435 99.7225H449.827C450.904 99.7237 451.936 100.121 452.698 100.826C453.46 101.532 453.888 102.489 453.889 103.487V153.915C453.888 154.913 453.46 155.87 452.698 156.575C451.936 157.281 450.904 157.678 449.827 157.679ZM230.435 101.228C229.789 101.229 229.169 101.467 228.712 101.891C228.255 102.314 227.998 102.888 227.998 103.487V153.915C227.998 154.514 228.255 155.088 228.712 155.511C229.169 155.935 229.789 156.173 230.435 156.173H449.827C450.473 156.173 451.093 155.935 451.55 155.511C452.007 155.088 452.264 154.514 452.264 153.915V103.487C452.264 102.888 452.007 102.314 451.55 101.891C451.093 101.467 450.473 101.229 449.827 101.228L230.435 101.228Z" fill="#E6E6E6"/>
<path d="M264.524 142.101C273.664 142.101 281.074 135.235 281.074 126.766C281.074 118.297 273.664 111.431 264.524 111.431C255.384 111.431 247.975 118.297 247.975 126.766C247.975 135.235 255.384 142.101 264.524 142.101Z" fill="#E6E6E6"/>
<path d="M302.746 116.543C302.384 116.542 302.025 116.608 301.689 116.736C301.354 116.864 301.05 117.052 300.793 117.29C300.536 117.527 300.333 117.809 300.194 118.119C300.055 118.43 299.984 118.762 299.984 119.098C299.984 119.434 300.055 119.767 300.194 120.077C300.333 120.388 300.536 120.67 300.793 120.907C301.05 121.145 301.354 121.333 301.689 121.461C302.025 121.589 302.384 121.655 302.746 121.654H432.779C433.511 121.654 434.213 121.385 434.73 120.906C435.247 120.426 435.538 119.776 435.538 119.098C435.538 118.421 435.247 117.77 434.73 117.291C434.213 116.812 433.511 116.543 432.779 116.543H302.746Z" fill="#E6E6E6"/>
<path d="M302.746 131.878C302.015 131.878 301.313 132.147 300.796 132.626C300.279 133.106 299.988 133.756 299.988 134.434C299.988 135.111 300.279 135.761 300.796 136.241C301.313 136.72 302.015 136.989 302.746 136.989H358.7C359.431 136.989 360.133 136.72 360.65 136.241C361.168 135.761 361.458 135.111 361.458 134.434C361.458 133.756 361.168 133.106 360.65 132.626C360.133 132.147 359.431 131.878 358.7 131.878H302.746Z" fill="#E6E6E6"/>
<path d="M181.441 132.912L140.885 152.891L140.372 136.242C153.609 134.194 166.203 130.629 177.848 124.825L182.089 115.115C182.552 114.057 183.303 113.128 184.269 112.42C185.236 111.712 186.384 111.25 187.602 111.077C188.82 110.905 190.065 111.029 191.215 111.437C192.366 111.846 193.382 112.524 194.164 113.406C195.308 114.697 195.88 116.342 195.763 118.008C195.647 119.675 194.852 121.239 193.538 122.382L181.441 132.912Z" fill="#FFB8B8"/>
<path d="M82.3463 248.263C82.0505 247.258 81.9877 246.206 82.162 245.176C82.3364 244.147 82.744 243.163 83.358 242.29L92.267 229.621C94.3742 226.624 97.6075 224.46 101.34 223.547C105.072 222.635 109.037 223.04 112.465 224.683C108.721 230.589 109.243 235.769 113.758 240.272C106.748 243.442 100.27 247.535 94.5233 252.422C93.4742 253.085 92.2694 253.506 91.0092 253.65C89.7491 253.794 88.47 253.656 87.2787 253.249C86.0873 252.843 85.0181 252.178 84.1602 251.311C83.3022 250.443 82.6803 249.399 82.3463 248.263Z" fill="#2F2E41"/>
<path d="M183.289 231.698C181.94 233.78 180.037 235.506 177.762 236.711C175.487 237.915 172.916 238.557 170.296 238.575L111.11 238.991L108.543 225.196L134.725 218.06L112.65 202.363L136.778 176.2L180.603 214.048C183.164 216.26 184.829 219.22 185.317 222.433C185.806 225.645 185.09 228.916 183.289 231.698Z" fill="#2F2E41"/>
<path d="M101.869 326.042H88.0081C75.5629 246.997 62.895 167.73 100.329 138.144L144.479 144.804L138.832 179.529L114.19 205.692L101.869 326.042Z" fill="#2F2E41"/>
<path d="M114.053 343.949C112.968 344.223 111.833 344.281 110.722 344.12C109.611 343.958 108.549 343.581 107.607 343.012L92.5566 341.137C89.3226 339.185 86.9865 336.189 86.0017 332.731C85.0168 329.273 85.4534 325.599 87.2267 322.422C93.6002 325.891 99.1912 325.407 104.05 321.223C107.483 327.646 113.139 327.254 118.541 332.665C119.256 333.637 119.71 334.754 119.866 335.921C120.021 337.089 119.873 338.274 119.434 339.378C118.995 340.482 118.278 341.473 117.342 342.268C116.406 343.063 115.278 343.639 114.053 343.949Z" fill="#2F2E41"/>
<path d="M134.725 85.3424L109.056 79.6341C113.319 71.5482 113.67 62.5511 111.623 52.9953L129.078 52.5197C129.624 64.4025 131.279 75.5041 134.725 85.3424Z" fill="#FFB8B8"/>
<path d="M143.055 158.677C124.37 170.475 111.167 159.08 101.092 141.5C102.492 130.742 100.225 117.868 96.0264 103.88C94.1593 97.7097 94.8564 91.1154 97.9801 85.3985C101.104 79.6816 106.427 75.2576 112.899 73L134.974 81.5625C153.718 95.7198 157.408 111.055 150.375 127.229L143.055 158.677Z" fill="#1CA0E3"/>
<path d="M88.008 97.2347L67.4732 107.224L103.922 127.203L108.994 138.795C109.333 139.569 109.498 140.398 109.479 141.233C109.46 142.068 109.258 142.89 108.885 143.65C108.512 144.41 107.976 145.092 107.309 145.654C106.643 146.215 105.86 146.645 105.008 146.917C104.04 147.227 103.007 147.324 101.992 147.202C100.976 147.08 100.005 146.742 99.1536 146.214C98.3026 145.686 97.595 144.983 97.0863 144.159C96.5776 143.335 96.2816 142.414 96.2214 141.466L95.7086 133.387L49.382 119.222C47.8211 118.744 46.398 117.944 45.2203 116.882C44.0425 115.819 43.1412 114.522 42.5844 113.089C41.7729 111.001 41.7316 108.722 42.467 106.609C43.2024 104.496 44.6729 102.668 46.6485 101.413L83.9011 77.7313L88.008 97.2347Z" fill="#FFB8B8"/>
<path d="M108.543 99.1375C99.9784 95.6597 92.1907 99.4376 82.3609 102.467L80.8208 77.2557C90.5814 72.4352 99.8875 71.1355 108.543 74.8772L108.543 99.1375Z" fill="#1CA0E3"/>
<path d="M118.788 65.0079C127.839 65.0079 135.176 58.2091 135.176 49.8224C135.176 41.4356 127.839 34.6368 118.788 34.6368C109.737 34.6368 102.399 41.4356 102.399 49.8224C102.399 58.2091 109.737 65.0079 118.788 65.0079Z" fill="#FFB8B8"/>
<path d="M138.393 47.9064C122.168 49.3789 109.804 46.92 101.902 39.9187V34.2803H137.016L138.393 47.9064Z" fill="#2F2E41"/>
</svg>
