<svg width="59" height="53" viewBox="0 0 59 53" fill="none" xmlns="http://www.w3.org/2000/svg">
<path d="M59 9.9375V39.75C59 42.1019 57.879 44.255 56.0501 45.4475V50.5156C56.0501 51.8737 55.0471 53 53.8376 53H52.3627C51.1532 53 50.1502 51.8737 50.1502 50.5156V46.375H29.5007V50.5156C29.5007 51.8737 28.4978 53 27.2883 53H25.8133C24.6038 53 23.6009 51.8737 23.6009 50.5156V45.4475C21.8014 44.255 20.6509 42.1019 20.6509 39.75V9.9375C20.6509 0 29.5007 0 39.8255 0C50.1502 0 59 0 59 9.9375ZM32.4507 36.4375C32.4507 34.6156 31.1232 33.125 29.5007 33.125C27.8783 33.125 26.5508 34.6156 26.5508 36.4375C26.5508 38.2594 27.8783 39.75 29.5007 39.75C31.1232 39.75 32.4507 38.2594 32.4507 36.4375ZM53.1001 36.4375C53.1001 34.6156 51.7727 33.125 50.1502 33.125C48.5278 33.125 47.2003 34.6156 47.2003 36.4375C47.2003 38.2594 48.5278 39.75 50.1502 39.75C51.7727 39.75 53.1001 38.2594 53.1001 36.4375ZM53.1001 9.9375H26.5508V23.1875H53.1001V9.9375ZM14.7511 18.2188C14.6626 13.6475 11.2997 9.9375 7.22877 10.1031C5.27297 10.1475 3.41293 11.0622 2.05763 12.6462C0.702324 14.2302 -0.0372775 16.3538 0.00144757 18.55C0.0399738 20.4288 0.644217 22.2376 1.71565 23.6813C2.78708 25.1251 4.26249 26.1186 5.9013 26.5V53H8.85123V26.5C12.3321 25.705 14.7511 22.2269 14.7511 18.2188Z" fill="#0384C6"/>
</svg>

