<svg width="19" height="18" viewBox="0 0 19 18" fill="none" xmlns="http://www.w3.org/2000/svg">
<path d="M9.5 0C4.35005 0 0 4.1211 0 9C0 13.8789 4.35005 18 9.5 18C14.65 18 19 13.8789 19 9C19 4.1211 14.65 0 9.5 0ZM9.5 4.5C11.1406 4.5 12.35 5.6448 12.35 7.2C12.35 8.7552 11.1406 9.9 9.5 9.9C7.8603 9.9 6.65 8.7552 6.65 7.2C6.65 5.6448 7.8603 4.5 9.5 4.5ZM4.6493 13.2948C5.50145 12.1068 6.92265 11.3148 8.55 11.3148H10.45C12.0783 11.3148 13.4986 12.1068 14.3507 13.2948C13.1366 14.526 11.4143 15.3 9.5 15.3C7.58575 15.3 5.8634 14.526 4.6493 13.2948Z" fill="#1CA0E3"/>
</svg>
