<svg width="21" height="20" viewBox="0 0 21 20" fill="none" xmlns="http://www.w3.org/2000/svg">
<path d="M19 9.597V9H20V6H19V4C19 1.794 17.206 0 15 0H5C2.794 0 1 1.794 1 4V6H0V9H1V9.597C0.353001 10.327 -0.00261409 11.2696 0.000999928 12.245L0.00500011 16.003C0.00600011 16.736 0.409 17.372 1 17.719V19C1 19.2652 1.10536 19.5196 1.29289 19.7071C1.48043 19.8946 1.73478 20 2 20H3C3.26522 20 3.51957 19.8946 3.70711 19.7071C3.89464 19.5196 4 19.2652 4 19V18H16V19C16 19.2652 16.1054 19.5196 16.2929 19.7071C16.4804 19.8946 16.7348 20 17 20H18C18.2652 20 18.5196 19.8946 18.7071 19.7071C18.8946 19.5196 19 19.2652 19 19V17.726C19.1533 17.6404 19.2949 17.5352 19.421 17.413C19.798 17.035 20.006 16.532 20.005 15.998L20.001 12.239C20.0031 11.2653 19.6468 10.3249 19 9.597V9.597ZM6 2H14V4H6V2ZM4.5 15C4.10204 14.9999 3.72044 14.8417 3.43913 14.5602C3.15783 14.2787 2.99987 13.897 3 13.499C3.00013 13.101 3.15835 12.7194 3.43984 12.4381C3.72133 12.1568 4.10304 11.9989 4.501 11.999C4.89896 11.9991 5.28056 12.1573 5.56187 12.4388C5.84317 12.7203 6.00113 13.102 6.001 13.5C6.00087 13.898 5.84265 14.2796 5.56116 14.5609C5.27967 14.8422 4.89796 15.0001 4.5 15ZM9 10H3V6H9V10ZM15.5 15C15.102 14.9999 14.7204 14.8417 14.4391 14.5602C14.1578 14.2787 13.9999 13.897 14 13.499C14.0001 13.101 14.1583 12.7194 14.4398 12.4381C14.7213 12.1568 15.103 11.9989 15.501 11.999C15.899 11.9991 16.2806 12.1573 16.5619 12.4388C16.8432 12.7203 17.0011 13.102 17.001 13.5C17.0009 13.898 16.8427 14.2796 16.5612 14.5609C16.2797 14.8422 15.898 15.0001 15.5 15ZM17 10H11V6H17V10Z" fill="#DA1E1E"/>
</svg>
