<svg width="774" height="1081" viewBox="0 0 774 1081" fill="none" xmlns="http://www.w3.org/2000/svg">
<path d="M473.5 437.906C464.439 437.906 457.094 443.992 457.094 451.5C457.094 459.008 464.439 465.094 473.5 465.094C482.561 465.094 489.906 459.008 489.906 451.5C489.906 443.992 482.561 437.906 473.5 437.906ZM483.554 459.831C481.061 461.89 477.732 463.107 474.215 463.244C470.699 463.38 467.247 462.427 464.532 460.57C461.817 458.714 460.034 456.086 459.529 453.199C459.025 450.312 459.836 447.373 461.804 444.954C463.773 442.536 466.757 440.811 470.176 440.116C473.595 439.422 477.204 439.806 480.3 441.196C483.395 442.585 485.755 444.88 486.92 447.632C488.085 450.385 487.972 453.398 486.602 456.085C485.888 457.485 484.853 458.757 483.554 459.831Z" fill="#1CA0E3"/>
<path d="M466.391 448.328H469.125V450.594H466.391V448.328Z" fill="#1CA0E3"/>
<path d="M477.875 448.328H480.609V450.594H477.875V448.328Z" fill="#1CA0E3"/>
<path d="M479.125 454.4C478.702 455.285 477.967 456.043 477.016 456.577C476.065 457.11 474.943 457.394 473.794 457.391H473.206C472.058 457.394 470.935 457.11 469.984 456.577C469.033 456.043 468.298 455.285 467.875 454.4L467.787 454.219H465.432L465.844 455.073C466.433 456.292 467.449 457.337 468.761 458.073C470.073 458.81 471.622 459.203 473.206 459.203H473.794C475.379 459.203 476.927 458.81 478.24 458.073C479.552 457.337 480.568 456.292 481.156 455.073L481.569 454.219H479.213L479.125 454.4Z" fill="#1CA0E3"/>
<path d="M203.4 411.001L194.25 446.101H183.9L178.3 423.001L172.5 446.101H162.15L153.25 411.001H162.4L167.45 436.551L173.7 411.001H183.1L189.1 436.551L194.2 411.001H203.4ZM233.988 431.701C233.988 432.501 233.938 433.335 233.838 434.201H214.488C214.621 435.935 215.171 437.268 216.138 438.201C217.138 439.101 218.355 439.551 219.788 439.551C221.921 439.551 223.405 438.651 224.238 436.851H233.338C232.871 438.685 232.021 440.335 230.788 441.801C229.588 443.268 228.071 444.418 226.238 445.251C224.405 446.085 222.355 446.501 220.088 446.501C217.355 446.501 214.921 445.918 212.788 444.751C210.655 443.585 208.988 441.918 207.788 439.751C206.588 437.585 205.988 435.051 205.988 432.151C205.988 429.251 206.571 426.718 207.738 424.551C208.938 422.385 210.605 420.718 212.738 419.551C214.871 418.385 217.321 417.801 220.088 417.801C222.788 417.801 225.188 418.368 227.288 419.501C229.388 420.635 231.021 422.251 232.188 424.351C233.388 426.451 233.988 428.901 233.988 431.701ZM225.238 429.451C225.238 427.985 224.738 426.818 223.738 425.951C222.738 425.085 221.488 424.651 219.988 424.651C218.555 424.651 217.338 425.068 216.338 425.901C215.371 426.735 214.771 427.918 214.538 429.451H225.238ZM259.694 417.801C261.661 417.801 263.377 418.201 264.844 419.001C266.344 419.801 267.494 420.851 268.294 422.151V418.201H276.844V446.051C276.844 448.618 276.327 450.935 275.294 453.001C274.294 455.101 272.744 456.768 270.644 458.001C268.577 459.235 265.994 459.851 262.894 459.851C258.761 459.851 255.411 458.868 252.844 456.901C250.277 454.968 248.811 452.335 248.444 449.001H256.894C257.161 450.068 257.794 450.901 258.794 451.501C259.794 452.135 261.027 452.451 262.494 452.451C264.261 452.451 265.661 451.935 266.694 450.901C267.761 449.901 268.294 448.285 268.294 446.051V442.101C267.461 443.401 266.311 444.468 264.844 445.301C263.377 446.101 261.661 446.501 259.694 446.501C257.394 446.501 255.311 445.918 253.444 444.751C251.577 443.551 250.094 441.868 248.994 439.701C247.927 437.501 247.394 434.968 247.394 432.101C247.394 429.235 247.927 426.718 248.994 424.551C250.094 422.385 251.577 420.718 253.444 419.551C255.311 418.385 257.394 417.801 259.694 417.801ZM268.294 432.151C268.294 430.018 267.694 428.335 266.494 427.101C265.327 425.868 263.894 425.251 262.194 425.251C260.494 425.251 259.044 425.868 257.844 427.101C256.677 428.301 256.094 429.968 256.094 432.101C256.094 434.235 256.677 435.935 257.844 437.201C259.044 438.435 260.494 439.051 262.194 439.051C263.894 439.051 265.327 438.435 266.494 437.201C267.694 435.968 268.294 434.285 268.294 432.151ZM295.73 446.501C292.996 446.501 290.53 445.918 288.33 444.751C286.163 443.585 284.446 441.918 283.18 439.751C281.946 437.585 281.33 435.051 281.33 432.151C281.33 429.285 281.963 426.768 283.23 424.601C284.496 422.401 286.23 420.718 288.43 419.551C290.63 418.385 293.096 417.801 295.83 417.801C298.563 417.801 301.03 418.385 303.23 419.551C305.43 420.718 307.163 422.401 308.43 424.601C309.696 426.768 310.33 429.285 310.33 432.151C310.33 435.018 309.68 437.551 308.38 439.751C307.113 441.918 305.363 443.585 303.13 444.751C300.93 445.918 298.463 446.501 295.73 446.501ZM295.73 439.101C297.363 439.101 298.746 438.501 299.88 437.301C301.046 436.101 301.63 434.385 301.63 432.151C301.63 429.918 301.063 428.201 299.93 427.001C298.83 425.801 297.463 425.201 295.83 425.201C294.163 425.201 292.78 425.801 291.68 427.001C290.58 428.168 290.03 429.885 290.03 432.151C290.03 434.385 290.563 436.101 291.63 437.301C292.73 438.501 294.096 439.101 295.73 439.101ZM330.416 438.851V446.101H326.066C322.966 446.101 320.549 445.351 318.816 443.851C317.082 442.318 316.216 439.835 316.216 436.401V425.301H312.816V418.201H316.216V411.401H324.766V418.201H330.366V425.301H324.766V436.501C324.766 437.335 324.966 437.935 325.366 438.301C325.766 438.668 326.432 438.851 327.366 438.851H330.416ZM374.274 418.201L356.774 459.351H347.574L353.974 445.151L342.624 418.201H352.174L358.624 435.651L365.024 418.201H374.274ZM390.066 446.501C387.332 446.501 384.866 445.918 382.666 444.751C380.499 443.585 378.782 441.918 377.516 439.751C376.282 437.585 375.666 435.051 375.666 432.151C375.666 429.285 376.299 426.768 377.566 424.601C378.832 422.401 380.566 420.718 382.766 419.551C384.966 418.385 387.432 417.801 390.166 417.801C392.899 417.801 395.366 418.385 397.566 419.551C399.766 420.718 401.499 422.401 402.766 424.601C404.032 426.768 404.666 429.285 404.666 432.151C404.666 435.018 404.016 437.551 402.716 439.751C401.449 441.918 399.699 443.585 397.466 444.751C395.266 445.918 392.799 446.501 390.066 446.501ZM390.066 439.101C391.699 439.101 393.082 438.501 394.216 437.301C395.382 436.101 395.966 434.385 395.966 432.151C395.966 429.918 395.399 428.201 394.266 427.001C393.166 425.801 391.799 425.201 390.166 425.201C388.499 425.201 387.116 425.801 386.016 427.001C384.916 428.168 384.366 429.885 384.366 432.151C384.366 434.385 384.899 436.101 385.966 437.301C387.066 438.501 388.432 439.101 390.066 439.101ZM436.752 418.201V446.101H428.202V442.301C427.335 443.535 426.152 444.535 424.652 445.301C423.185 446.035 421.552 446.401 419.752 446.401C417.618 446.401 415.735 445.935 414.102 445.001C412.468 444.035 411.202 442.651 410.302 440.851C409.402 439.051 408.952 436.935 408.952 434.501V418.201H417.452V433.351C417.452 435.218 417.935 436.668 418.902 437.701C419.868 438.735 421.168 439.251 422.802 439.251C424.468 439.251 425.785 438.735 426.752 437.701C427.718 436.668 428.202 435.218 428.202 433.351V418.201H436.752Z" fill="#1CA0E3"/>
<path d="M177.48 523.834L172.124 541.904H168.77L164.974 528.228L160.944 541.904L157.616 541.93L152.494 523.834H155.64L159.384 538.55L163.44 523.834H166.768L170.538 538.472L174.308 523.834H177.48ZM182.889 529.658C183.322 528.93 183.894 528.367 184.605 527.968C185.333 527.552 186.191 527.344 187.179 527.344V530.412H186.425C185.263 530.412 184.379 530.707 183.773 531.296C183.183 531.885 182.889 532.908 182.889 534.364V541.904H179.925V527.578H182.889V529.658ZM191.411 525.68C190.874 525.68 190.423 525.498 190.059 525.134C189.695 524.77 189.513 524.319 189.513 523.782C189.513 523.245 189.695 522.794 190.059 522.43C190.423 522.066 190.874 521.884 191.411 521.884C191.931 521.884 192.373 522.066 192.737 522.43C193.101 522.794 193.283 523.245 193.283 523.782C193.283 524.319 193.101 524.77 192.737 525.134C192.373 525.498 191.931 525.68 191.411 525.68ZM192.867 527.578V541.904H189.903V527.578H192.867ZM200.217 529.996V537.926C200.217 538.463 200.338 538.853 200.581 539.096C200.841 539.321 201.274 539.434 201.881 539.434H203.701V541.904H201.361C200.026 541.904 199.003 541.592 198.293 540.968C197.582 540.344 197.227 539.33 197.227 537.926V529.996H195.537V527.578H197.227V524.016H200.217V527.578H203.701V529.996H200.217ZM219.562 534.39C219.562 534.927 219.528 535.413 219.458 535.846H208.512C208.599 536.99 209.024 537.909 209.786 538.602C210.549 539.295 211.485 539.642 212.594 539.642C214.189 539.642 215.316 538.975 215.974 537.64H219.172C218.739 538.957 217.95 540.041 216.806 540.89C215.68 541.722 214.276 542.138 212.594 542.138C211.225 542.138 209.994 541.835 208.902 541.228C207.828 540.604 206.978 539.737 206.354 538.628C205.748 537.501 205.444 536.201 205.444 534.728C205.444 533.255 205.739 531.963 206.328 530.854C206.935 529.727 207.776 528.861 208.85 528.254C209.942 527.647 211.19 527.344 212.594 527.344C213.946 527.344 215.151 527.639 216.208 528.228C217.266 528.817 218.089 529.649 218.678 530.724C219.268 531.781 219.562 533.003 219.562 534.39ZM216.468 533.454C216.451 532.362 216.061 531.487 215.298 530.828C214.536 530.169 213.591 529.84 212.464 529.84C211.442 529.84 210.566 530.169 209.838 530.828C209.11 531.469 208.677 532.345 208.538 533.454H216.468ZM242.129 527.578L233.341 548.638H230.273L233.185 541.67L227.543 527.578H230.845L234.875 538.498L239.061 527.578H242.129ZM250.58 542.138C249.228 542.138 248.006 541.835 246.914 541.228C245.822 540.604 244.964 539.737 244.34 538.628C243.716 537.501 243.404 536.201 243.404 534.728C243.404 533.272 243.725 531.981 244.366 530.854C245.007 529.727 245.883 528.861 246.992 528.254C248.101 527.647 249.341 527.344 250.71 527.344C252.079 527.344 253.319 527.647 254.428 528.254C255.537 528.861 256.413 529.727 257.054 530.854C257.695 531.981 258.016 533.272 258.016 534.728C258.016 536.184 257.687 537.475 257.028 538.602C256.369 539.729 255.468 540.604 254.324 541.228C253.197 541.835 251.949 542.138 250.58 542.138ZM250.58 539.564C251.343 539.564 252.053 539.382 252.712 539.018C253.388 538.654 253.934 538.108 254.35 537.38C254.766 536.652 254.974 535.768 254.974 534.728C254.974 533.688 254.775 532.813 254.376 532.102C253.977 531.374 253.449 530.828 252.79 530.464C252.131 530.1 251.421 529.918 250.658 529.918C249.895 529.918 249.185 530.1 248.526 530.464C247.885 530.828 247.373 531.374 246.992 532.102C246.611 532.813 246.42 533.688 246.42 534.728C246.42 536.271 246.81 537.467 247.59 538.316C248.387 539.148 249.384 539.564 250.58 539.564ZM273.92 527.578V541.904H270.956V540.214C270.488 540.803 269.873 541.271 269.11 541.618C268.365 541.947 267.567 542.112 266.718 542.112C265.591 542.112 264.577 541.878 263.676 541.41C262.792 540.942 262.09 540.249 261.57 539.33C261.067 538.411 260.816 537.302 260.816 536.002V527.578H263.754V535.56C263.754 536.843 264.075 537.831 264.716 538.524C265.357 539.2 266.233 539.538 267.342 539.538C268.451 539.538 269.327 539.2 269.968 538.524C270.627 537.831 270.956 536.843 270.956 535.56V527.578H273.92ZM280.795 529.658C281.228 528.93 281.8 528.367 282.511 527.968C283.239 527.552 284.097 527.344 285.085 527.344V530.412H284.331C283.17 530.412 282.286 530.707 281.679 531.296C281.09 531.885 280.795 532.908 280.795 534.364V541.904H277.831V527.578H280.795V529.658ZM307.693 534.39C307.693 534.927 307.659 535.413 307.589 535.846H296.643C296.73 536.99 297.155 537.909 297.917 538.602C298.68 539.295 299.616 539.642 300.725 539.642C302.32 539.642 303.447 538.975 304.105 537.64H307.303C306.87 538.957 306.081 540.041 304.937 540.89C303.811 541.722 302.407 542.138 300.725 542.138C299.356 542.138 298.125 541.835 297.033 541.228C295.959 540.604 295.109 539.737 294.485 538.628C293.879 537.501 293.575 536.201 293.575 534.728C293.575 533.255 293.87 531.963 294.459 530.854C295.066 529.727 295.907 528.861 296.981 528.254C298.073 527.647 299.321 527.344 300.725 527.344C302.077 527.344 303.282 527.639 304.339 528.228C305.397 528.817 306.22 529.649 306.809 530.724C307.399 531.781 307.693 533.003 307.693 534.39ZM304.599 533.454C304.582 532.362 304.192 531.487 303.429 530.828C302.667 530.169 301.722 529.84 300.595 529.84C299.573 529.84 298.697 530.169 297.969 530.828C297.241 531.469 296.808 532.345 296.669 533.454H304.599ZM327.952 527.344C329.079 527.344 330.084 527.578 330.968 528.046C331.869 528.514 332.571 529.207 333.074 530.126C333.594 531.045 333.854 532.154 333.854 533.454V541.904H330.916V533.896C330.916 532.613 330.595 531.634 329.954 530.958C329.313 530.265 328.437 529.918 327.328 529.918C326.219 529.918 325.335 530.265 324.676 530.958C324.035 531.634 323.714 532.613 323.714 533.896V541.904H320.776V533.896C320.776 532.613 320.455 531.634 319.814 530.958C319.173 530.265 318.297 529.918 317.188 529.918C316.079 529.918 315.195 530.265 314.536 530.958C313.895 531.634 313.574 532.613 313.574 533.896V541.904H310.61V527.578H313.574V529.216C314.059 528.627 314.675 528.167 315.42 527.838C316.165 527.509 316.963 527.344 317.812 527.344C318.956 527.344 319.979 527.587 320.88 528.072C321.781 528.557 322.475 529.259 322.96 530.178C323.393 529.311 324.069 528.627 324.988 528.124C325.907 527.604 326.895 527.344 327.952 527.344ZM336.638 534.676C336.638 533.237 336.932 531.963 337.522 530.854C338.128 529.745 338.943 528.887 339.966 528.28C341.006 527.656 342.15 527.344 343.398 527.344C344.524 527.344 345.504 527.569 346.336 528.02C347.185 528.453 347.861 528.999 348.364 529.658V527.578H351.354V541.904H348.364V539.772C347.861 540.448 347.176 541.011 346.31 541.462C345.443 541.913 344.455 542.138 343.346 542.138C342.115 542.138 340.988 541.826 339.966 541.202C338.943 540.561 338.128 539.677 337.522 538.55C336.932 537.406 336.638 536.115 336.638 534.676ZM348.364 534.728C348.364 533.74 348.156 532.882 347.74 532.154C347.341 531.426 346.812 530.871 346.154 530.49C345.495 530.109 344.784 529.918 344.022 529.918C343.259 529.918 342.548 530.109 341.89 530.49C341.231 530.854 340.694 531.4 340.278 532.128C339.879 532.839 339.68 533.688 339.68 534.676C339.68 535.664 339.879 536.531 340.278 537.276C340.694 538.021 341.231 538.593 341.89 538.992C342.566 539.373 343.276 539.564 344.022 539.564C344.784 539.564 345.495 539.373 346.154 538.992C346.812 538.611 347.341 538.056 347.74 537.328C348.156 536.583 348.364 535.716 348.364 534.728ZM356.755 525.68C356.218 525.68 355.767 525.498 355.403 525.134C355.039 524.77 354.857 524.319 354.857 523.782C354.857 523.245 355.039 522.794 355.403 522.43C355.767 522.066 356.218 521.884 356.755 521.884C357.275 521.884 357.717 522.066 358.081 522.43C358.445 522.794 358.627 523.245 358.627 523.782C358.627 524.319 358.445 524.77 358.081 525.134C357.717 525.498 357.275 525.68 356.755 525.68ZM358.211 527.578V541.904H355.247V527.578H358.211ZM365.066 522.664V541.904H362.102V522.664H365.066ZM386.606 538.212H379.04L377.74 541.904H374.646L381.12 523.808H384.552L391.026 541.904H387.906L386.606 538.212ZM385.774 535.794L382.836 527.396L379.872 535.794H385.774ZM401.069 527.344C402.195 527.344 403.201 527.578 404.085 528.046C404.986 528.514 405.688 529.207 406.191 530.126C406.693 531.045 406.945 532.154 406.945 533.454V541.904H404.007V533.896C404.007 532.613 403.686 531.634 403.045 530.958C402.403 530.265 401.528 529.918 400.419 529.918C399.309 529.918 398.425 530.265 397.767 530.958C397.125 531.634 396.805 532.613 396.805 533.896V541.904H393.841V527.578H396.805V529.216C397.29 528.627 397.905 528.167 398.651 527.838C399.413 527.509 400.219 527.344 401.069 527.344ZM409.737 534.676C409.737 533.237 410.032 531.963 410.621 530.854C411.228 529.745 412.043 528.887 413.065 528.28C414.105 527.656 415.258 527.344 416.523 527.344C417.459 527.344 418.378 527.552 419.279 527.968C420.198 528.367 420.926 528.904 421.463 529.58V522.664H424.453V541.904H421.463V539.746C420.978 540.439 420.302 541.011 419.435 541.462C418.586 541.913 417.607 542.138 416.497 542.138C415.249 542.138 414.105 541.826 413.065 541.202C412.043 540.561 411.228 539.677 410.621 538.55C410.032 537.406 409.737 536.115 409.737 534.676ZM421.463 534.728C421.463 533.74 421.255 532.882 420.839 532.154C420.441 531.426 419.912 530.871 419.253 530.49C418.595 530.109 417.884 529.918 417.121 529.918C416.359 529.918 415.648 530.109 414.989 530.49C414.331 530.854 413.793 531.4 413.377 532.128C412.979 532.839 412.779 533.688 412.779 534.676C412.779 535.664 412.979 536.531 413.377 537.276C413.793 538.021 414.331 538.593 414.989 538.992C415.665 539.373 416.376 539.564 417.121 539.564C417.884 539.564 418.595 539.373 419.253 538.992C419.912 538.611 420.441 538.056 420.839 537.328C421.255 536.583 421.463 535.716 421.463 534.728ZM434.112 534.728C434.112 533.255 434.407 531.963 434.996 530.854C435.603 529.727 436.435 528.861 437.492 528.254C438.55 527.647 439.763 527.344 441.132 527.344C442.866 527.344 444.296 527.76 445.422 528.592C446.566 529.407 447.338 530.577 447.736 532.102H444.538C444.278 531.391 443.862 530.837 443.29 530.438C442.718 530.039 441.999 529.84 441.132 529.84C439.919 529.84 438.948 530.273 438.22 531.14C437.51 531.989 437.154 533.185 437.154 534.728C437.154 536.271 437.51 537.475 438.22 538.342C438.948 539.209 439.919 539.642 441.132 539.642C442.848 539.642 443.984 538.888 444.538 537.38H447.736C447.32 538.836 446.54 539.997 445.396 540.864C444.252 541.713 442.831 542.138 441.132 542.138C439.763 542.138 438.55 541.835 437.492 541.228C436.435 540.604 435.603 539.737 434.996 538.628C434.407 537.501 434.112 536.201 434.112 534.728ZM453.654 522.664V541.904H450.69V522.664H453.654ZM459.054 525.68C458.516 525.68 458.066 525.498 457.702 525.134C457.338 524.77 457.156 524.319 457.156 523.782C457.156 523.245 457.338 522.794 457.702 522.43C458.066 522.066 458.516 521.884 459.054 521.884C459.574 521.884 460.016 522.066 460.38 522.43C460.744 522.794 460.926 523.245 460.926 523.782C460.926 524.319 460.744 524.77 460.38 525.134C460.016 525.498 459.574 525.68 459.054 525.68ZM460.51 527.578V541.904H457.546V527.578H460.51ZM463.413 534.728C463.413 533.255 463.708 531.963 464.297 530.854C464.904 529.727 465.736 528.861 466.793 528.254C467.851 527.647 469.064 527.344 470.433 527.344C472.167 527.344 473.597 527.76 474.723 528.592C475.867 529.407 476.639 530.577 477.037 532.102H473.839C473.579 531.391 473.163 530.837 472.591 530.438C472.019 530.039 471.3 529.84 470.433 529.84C469.22 529.84 468.249 530.273 467.521 531.14C466.811 531.989 466.455 533.185 466.455 534.728C466.455 536.271 466.811 537.475 467.521 538.342C468.249 539.209 469.22 539.642 470.433 539.642C472.149 539.642 473.285 538.888 473.839 537.38H477.037C476.621 538.836 475.841 539.997 474.697 540.864C473.553 541.713 472.132 542.138 470.433 542.138C469.064 542.138 467.851 541.835 466.793 541.228C465.736 540.604 464.904 539.737 464.297 538.628C463.708 537.501 463.413 536.201 463.413 534.728ZM485.659 534.754L492.263 541.904H488.259L482.955 535.742V541.904H479.991V522.664H482.955V533.844L488.155 527.578H492.263L485.659 534.754ZM504.105 529.658C504.539 528.93 505.111 528.367 505.821 527.968C506.549 527.552 507.407 527.344 508.395 527.344V530.412H507.641C506.48 530.412 505.596 530.707 504.989 531.296C504.4 531.885 504.105 532.908 504.105 534.364V541.904H501.141V527.578H504.105V529.658ZM524.25 534.39C524.25 534.927 524.215 535.413 524.146 535.846H513.2C513.287 536.99 513.711 537.909 514.474 538.602C515.237 539.295 516.173 539.642 517.282 539.642C518.877 539.642 520.003 538.975 520.662 537.64H523.86C523.427 538.957 522.638 540.041 521.494 540.89C520.367 541.722 518.963 542.138 517.282 542.138C515.913 542.138 514.682 541.835 513.59 541.228C512.515 540.604 511.666 539.737 511.042 538.628C510.435 537.501 510.132 536.201 510.132 534.728C510.132 533.255 510.427 531.963 511.016 530.854C511.623 529.727 512.463 528.861 513.538 528.254C514.63 527.647 515.878 527.344 517.282 527.344C518.634 527.344 519.839 527.639 520.896 528.228C521.953 528.817 522.777 529.649 523.366 530.724C523.955 531.781 524.25 533.003 524.25 534.39ZM521.156 533.454C521.139 532.362 520.749 531.487 519.986 530.828C519.223 530.169 518.279 529.84 517.152 529.84C516.129 529.84 515.254 530.169 514.526 530.828C513.798 531.469 513.365 532.345 513.226 533.454H521.156ZM532.367 542.138C531.24 542.138 530.226 541.939 529.325 541.54C528.441 541.124 527.739 540.569 527.219 539.876C526.699 539.165 526.421 538.377 526.387 537.51H529.455C529.507 538.117 529.793 538.628 530.313 539.044C530.85 539.443 531.517 539.642 532.315 539.642C533.147 539.642 533.788 539.486 534.239 539.174C534.707 538.845 534.941 538.429 534.941 537.926C534.941 537.389 534.681 536.99 534.161 536.73C533.658 536.47 532.852 536.184 531.743 535.872C530.668 535.577 529.793 535.291 529.117 535.014C528.441 534.737 527.851 534.312 527.349 533.74C526.863 533.168 526.621 532.414 526.621 531.478C526.621 530.715 526.846 530.022 527.297 529.398C527.747 528.757 528.389 528.254 529.221 527.89C530.07 527.526 531.041 527.344 532.133 527.344C533.762 527.344 535.071 527.76 536.059 528.592C537.064 529.407 537.601 530.525 537.671 531.946H534.707C534.655 531.305 534.395 530.793 533.927 530.412C533.459 530.031 532.826 529.84 532.029 529.84C531.249 529.84 530.651 529.987 530.235 530.282C529.819 530.577 529.611 530.967 529.611 531.452C529.611 531.833 529.749 532.154 530.027 532.414C530.304 532.674 530.642 532.882 531.041 533.038C531.439 533.177 532.029 533.359 532.809 533.584C533.849 533.861 534.698 534.147 535.357 534.442C536.033 534.719 536.613 535.135 537.099 535.69C537.584 536.245 537.835 536.981 537.853 537.9C537.853 538.715 537.627 539.443 537.177 540.084C536.726 540.725 536.085 541.228 535.253 541.592C534.438 541.956 533.476 542.138 532.367 542.138ZM554.185 534.39C554.185 534.927 554.151 535.413 554.081 535.846H543.135C543.222 536.99 543.647 537.909 544.409 538.602C545.172 539.295 546.108 539.642 547.217 539.642C548.812 539.642 549.939 538.975 550.597 537.64H553.795C553.362 538.957 552.573 540.041 551.429 540.89C550.303 541.722 548.899 542.138 547.217 542.138C545.848 542.138 544.617 541.835 543.525 541.228C542.451 540.604 541.601 539.737 540.977 538.628C540.371 537.501 540.067 536.201 540.067 534.728C540.067 533.255 540.362 531.963 540.951 530.854C541.558 529.727 542.399 528.861 543.473 528.254C544.565 527.647 545.813 527.344 547.217 527.344C548.569 527.344 549.774 527.639 550.831 528.228C551.889 528.817 552.712 529.649 553.301 530.724C553.891 531.781 554.185 533.003 554.185 534.39ZM551.091 533.454C551.074 532.362 550.684 531.487 549.921 530.828C549.159 530.169 548.214 529.84 547.087 529.84C546.065 529.84 545.189 530.169 544.461 530.828C543.733 531.469 543.3 532.345 543.161 533.454H551.091ZM560.56 529.996V537.926C560.56 538.463 560.682 538.853 560.924 539.096C561.184 539.321 561.618 539.434 562.224 539.434H564.044V541.904H561.704C560.37 541.904 559.347 541.592 558.636 540.968C557.926 540.344 557.57 539.33 557.57 537.926V529.996H555.88V527.578H557.57V524.016H560.56V527.578H564.044V529.996H560.56ZM156.914 568.684C157.417 568.025 158.101 567.471 158.968 567.02C159.835 566.569 160.814 566.344 161.906 566.344C163.154 566.344 164.289 566.656 165.312 567.28C166.352 567.887 167.167 568.745 167.756 569.854C168.345 570.963 168.64 572.237 168.64 573.676C168.64 575.115 168.345 576.406 167.756 577.55C167.167 578.677 166.352 579.561 165.312 580.202C164.289 580.826 163.154 581.138 161.906 581.138C160.814 581.138 159.843 580.921 158.994 580.488C158.145 580.037 157.451 579.483 156.914 578.824V587.716H153.95V566.578H156.914V568.684ZM165.624 573.676C165.624 572.688 165.416 571.839 165 571.128C164.601 570.4 164.064 569.854 163.388 569.49C162.729 569.109 162.019 568.918 161.256 568.918C160.511 568.918 159.8 569.109 159.124 569.49C158.465 569.871 157.928 570.426 157.512 571.154C157.113 571.882 156.914 572.74 156.914 573.728C156.914 574.716 157.113 575.583 157.512 576.328C157.928 577.056 158.465 577.611 159.124 577.992C159.8 578.373 160.511 578.564 161.256 578.564C162.019 578.564 162.729 578.373 163.388 577.992C164.064 577.593 164.601 577.021 165 576.276C165.416 575.531 165.624 574.664 165.624 573.676ZM170.583 573.676C170.583 572.237 170.878 570.963 171.467 569.854C172.074 568.745 172.888 567.887 173.911 567.28C174.951 566.656 176.095 566.344 177.343 566.344C178.47 566.344 179.449 566.569 180.281 567.02C181.13 567.453 181.806 567.999 182.309 568.658V566.578H185.299V580.904H182.309V578.772C181.806 579.448 181.122 580.011 180.255 580.462C179.388 580.913 178.4 581.138 177.291 581.138C176.06 581.138 174.934 580.826 173.911 580.202C172.888 579.561 172.074 578.677 171.467 577.55C170.878 576.406 170.583 575.115 170.583 573.676ZM182.309 573.728C182.309 572.74 182.101 571.882 181.685 571.154C181.286 570.426 180.758 569.871 180.099 569.49C179.44 569.109 178.73 568.918 177.967 568.918C177.204 568.918 176.494 569.109 175.835 569.49C175.176 569.854 174.639 570.4 174.223 571.128C173.824 571.839 173.625 572.688 173.625 573.676C173.625 574.664 173.824 575.531 174.223 576.276C174.639 577.021 175.176 577.593 175.835 577.992C176.511 578.373 177.222 578.564 177.967 578.564C178.73 578.564 179.44 578.373 180.099 577.992C180.758 577.611 181.286 577.056 181.685 576.328C182.101 575.583 182.309 574.716 182.309 573.728ZM194.392 581.138C193.266 581.138 192.252 580.939 191.35 580.54C190.466 580.124 189.764 579.569 189.244 578.876C188.724 578.165 188.447 577.377 188.412 576.51H191.48C191.532 577.117 191.818 577.628 192.338 578.044C192.876 578.443 193.543 578.642 194.34 578.642C195.172 578.642 195.814 578.486 196.264 578.174C196.732 577.845 196.966 577.429 196.966 576.926C196.966 576.389 196.706 575.99 196.186 575.73C195.684 575.47 194.878 575.184 193.768 574.872C192.694 574.577 191.818 574.291 191.142 574.014C190.466 573.737 189.877 573.312 189.374 572.74C188.889 572.168 188.646 571.414 188.646 570.478C188.646 569.715 188.872 569.022 189.322 568.398C189.773 567.757 190.414 567.254 191.246 566.89C192.096 566.526 193.066 566.344 194.158 566.344C195.788 566.344 197.096 566.76 198.084 567.592C199.09 568.407 199.627 569.525 199.696 570.946H196.732C196.68 570.305 196.42 569.793 195.952 569.412C195.484 569.031 194.852 568.84 194.054 568.84C193.274 568.84 192.676 568.987 192.26 569.282C191.844 569.577 191.636 569.967 191.636 570.452C191.636 570.833 191.775 571.154 192.052 571.414C192.33 571.674 192.668 571.882 193.066 572.038C193.465 572.177 194.054 572.359 194.834 572.584C195.874 572.861 196.724 573.147 197.382 573.442C198.058 573.719 198.639 574.135 199.124 574.69C199.61 575.245 199.861 575.981 199.878 576.9C199.878 577.715 199.653 578.443 199.202 579.084C198.752 579.725 198.11 580.228 197.278 580.592C196.464 580.956 195.502 581.138 194.392 581.138ZM208.281 581.138C207.154 581.138 206.14 580.939 205.239 580.54C204.355 580.124 203.653 579.569 203.133 578.876C202.613 578.165 202.336 577.377 202.301 576.51H205.369C205.421 577.117 205.707 577.628 206.227 578.044C206.764 578.443 207.432 578.642 208.229 578.642C209.061 578.642 209.702 578.486 210.153 578.174C210.621 577.845 210.855 577.429 210.855 576.926C210.855 576.389 210.595 575.99 210.075 575.73C209.572 575.47 208.766 575.184 207.657 574.872C206.582 574.577 205.707 574.291 205.031 574.014C204.355 573.737 203.766 573.312 203.263 572.74C202.778 572.168 202.535 571.414 202.535 570.478C202.535 569.715 202.76 569.022 203.211 568.398C203.662 567.757 204.303 567.254 205.135 566.89C205.984 566.526 206.955 566.344 208.047 566.344C209.676 566.344 210.985 566.76 211.973 567.592C212.978 568.407 213.516 569.525 213.585 570.946H210.621C210.569 570.305 210.309 569.793 209.841 569.412C209.373 569.031 208.74 568.84 207.943 568.84C207.163 568.84 206.565 568.987 206.149 569.282C205.733 569.577 205.525 569.967 205.525 570.452C205.525 570.833 205.664 571.154 205.941 571.414C206.218 571.674 206.556 571.882 206.955 572.038C207.354 572.177 207.943 572.359 208.723 572.584C209.763 572.861 210.612 573.147 211.271 573.442C211.947 573.719 212.528 574.135 213.013 574.69C213.498 575.245 213.75 575.981 213.767 576.9C213.767 577.715 213.542 578.443 213.091 579.084C212.64 579.725 211.999 580.228 211.167 580.592C210.352 580.956 209.39 581.138 208.281 581.138ZM236.21 566.578L231.764 580.904H228.644L225.758 570.322L222.872 580.904H219.752L215.28 566.578H218.296L221.286 578.096L224.328 566.578H227.422L230.334 578.044L233.298 566.578H236.21ZM244.639 581.138C243.287 581.138 242.065 580.835 240.973 580.228C239.881 579.604 239.023 578.737 238.399 577.628C237.775 576.501 237.463 575.201 237.463 573.728C237.463 572.272 237.783 570.981 238.425 569.854C239.066 568.727 239.941 567.861 241.051 567.254C242.16 566.647 243.399 566.344 244.769 566.344C246.138 566.344 247.377 566.647 248.487 567.254C249.596 567.861 250.471 568.727 251.113 569.854C251.754 570.981 252.075 572.272 252.075 573.728C252.075 575.184 251.745 576.475 251.087 577.602C250.428 578.729 249.527 579.604 248.383 580.228C247.256 580.835 246.008 581.138 244.639 581.138ZM244.639 578.564C245.401 578.564 246.112 578.382 246.771 578.018C247.447 577.654 247.993 577.108 248.409 576.38C248.825 575.652 249.033 574.768 249.033 573.728C249.033 572.688 248.833 571.813 248.435 571.102C248.036 570.374 247.507 569.828 246.849 569.464C246.19 569.1 245.479 568.918 244.717 568.918C243.954 568.918 243.243 569.1 242.585 569.464C241.943 569.828 241.432 570.374 241.051 571.102C240.669 571.813 240.479 572.688 240.479 573.728C240.479 575.271 240.869 576.467 241.649 577.316C242.446 578.148 243.443 578.564 244.639 578.564ZM257.969 568.658C258.402 567.93 258.974 567.367 259.685 566.968C260.413 566.552 261.271 566.344 262.259 566.344V569.412H261.505C260.343 569.412 259.459 569.707 258.853 570.296C258.263 570.885 257.969 571.908 257.969 573.364V580.904H255.005V566.578H257.969V568.658ZM263.995 573.676C263.995 572.237 264.29 570.963 264.879 569.854C265.486 568.745 266.301 567.887 267.323 567.28C268.363 566.656 269.516 566.344 270.781 566.344C271.717 566.344 272.636 566.552 273.537 566.968C274.456 567.367 275.184 567.904 275.721 568.58V561.664H278.711V580.904H275.721V578.746C275.236 579.439 274.56 580.011 273.693 580.462C272.844 580.913 271.865 581.138 270.755 581.138C269.507 581.138 268.363 580.826 267.323 580.202C266.301 579.561 265.486 578.677 264.879 577.55C264.29 576.406 263.995 575.115 263.995 573.676ZM275.721 573.728C275.721 572.74 275.513 571.882 275.097 571.154C274.699 570.426 274.17 569.871 273.511 569.49C272.853 569.109 272.142 568.918 271.379 568.918C270.617 568.918 269.906 569.109 269.247 569.49C268.589 569.854 268.051 570.4 267.635 571.128C267.237 571.839 267.037 572.688 267.037 573.676C267.037 574.664 267.237 575.531 267.635 576.276C268.051 577.021 268.589 577.593 269.247 577.992C269.923 578.373 270.634 578.564 271.379 578.564C272.142 578.564 272.853 578.373 273.511 577.992C274.17 577.611 274.699 577.056 275.097 576.328C275.513 575.583 275.721 574.716 275.721 573.728ZM292.322 568.71C292.825 568.017 293.51 567.453 294.376 567.02C295.26 566.569 296.24 566.344 297.314 566.344C298.58 566.344 299.724 566.647 300.746 567.254C301.769 567.861 302.575 568.727 303.164 569.854C303.754 570.963 304.048 572.237 304.048 573.676C304.048 575.115 303.754 576.406 303.164 577.55C302.575 578.677 301.76 579.561 300.72 580.202C299.698 580.826 298.562 581.138 297.314 581.138C296.205 581.138 295.217 580.921 294.35 580.488C293.501 580.055 292.825 579.5 292.322 578.824V580.904H289.358V561.664H292.322V568.71ZM301.032 573.676C301.032 572.688 300.824 571.839 300.408 571.128C300.01 570.4 299.472 569.854 298.796 569.49C298.138 569.109 297.427 568.918 296.664 568.918C295.919 568.918 295.208 569.109 294.532 569.49C293.874 569.871 293.336 570.426 292.92 571.154C292.522 571.882 292.322 572.74 292.322 573.728C292.322 574.716 292.522 575.583 292.92 576.328C293.336 577.056 293.874 577.611 294.532 577.992C295.208 578.373 295.919 578.564 296.664 578.564C297.427 578.564 298.138 578.373 298.796 577.992C299.472 577.593 300.01 577.021 300.408 576.276C300.824 575.531 301.032 574.664 301.032 573.676ZM319.953 566.578V580.904H316.989V579.214C316.521 579.803 315.906 580.271 315.143 580.618C314.398 580.947 313.601 581.112 312.751 581.112C311.625 581.112 310.611 580.878 309.709 580.41C308.825 579.942 308.123 579.249 307.603 578.33C307.101 577.411 306.849 576.302 306.849 575.002V566.578H309.787V574.56C309.787 575.843 310.108 576.831 310.749 577.524C311.391 578.2 312.266 578.538 313.375 578.538C314.485 578.538 315.36 578.2 316.001 577.524C316.66 576.831 316.989 575.843 316.989 574.56V566.578H319.953ZM327.322 568.996V576.926C327.322 577.463 327.443 577.853 327.686 578.096C327.946 578.321 328.379 578.434 328.986 578.434H330.806V580.904H328.466C327.131 580.904 326.109 580.592 325.398 579.968C324.687 579.344 324.332 578.33 324.332 576.926V568.996H322.642V566.578H324.332V563.016H327.322V566.578H330.806V568.996H327.322ZM336.996 568.996V576.926C336.996 577.463 337.117 577.853 337.36 578.096C337.62 578.321 338.053 578.434 338.66 578.434H340.48V580.904H338.14C336.805 580.904 335.783 580.592 335.072 579.968C334.361 579.344 334.006 578.33 334.006 576.926V568.996H332.316V566.578H334.006V563.016H336.996V566.578H340.48V568.996H336.996ZM349.426 581.138C348.074 581.138 346.852 580.835 345.76 580.228C344.668 579.604 343.81 578.737 343.186 577.628C342.562 576.501 342.25 575.201 342.25 573.728C342.25 572.272 342.57 570.981 343.212 569.854C343.853 568.727 344.728 567.861 345.838 567.254C346.947 566.647 348.186 566.344 349.556 566.344C350.925 566.344 352.164 566.647 353.274 567.254C354.383 567.861 355.258 568.727 355.9 569.854C356.541 570.981 356.862 572.272 356.862 573.728C356.862 575.184 356.532 576.475 355.874 577.602C355.215 578.729 354.314 579.604 353.17 580.228C352.043 580.835 350.795 581.138 349.426 581.138ZM349.426 578.564C350.188 578.564 350.899 578.382 351.558 578.018C352.234 577.654 352.78 577.108 353.196 576.38C353.612 575.652 353.82 574.768 353.82 573.728C353.82 572.688 353.62 571.813 353.222 571.102C352.823 570.374 352.294 569.828 351.636 569.464C350.977 569.1 350.266 568.918 349.504 568.918C348.741 568.918 348.03 569.1 347.372 569.464C346.73 569.828 346.219 570.374 345.838 571.102C345.456 571.813 345.266 572.688 345.266 573.728C345.266 575.271 345.656 576.467 346.436 577.316C347.233 578.148 348.23 578.564 349.426 578.564ZM367.02 566.344C368.146 566.344 369.152 566.578 370.036 567.046C370.937 567.514 371.639 568.207 372.142 569.126C372.644 570.045 372.896 571.154 372.896 572.454V580.904H369.958V572.896C369.958 571.613 369.637 570.634 368.996 569.958C368.354 569.265 367.479 568.918 366.37 568.918C365.26 568.918 364.376 569.265 363.718 569.958C363.076 570.634 362.756 571.613 362.756 572.896V580.904H359.792V566.578H362.756V568.216C363.241 567.627 363.856 567.167 364.602 566.838C365.364 566.509 366.17 566.344 367.02 566.344Z" fill="#090808" fill-opacity="0.72"/>
</svg>
