<svg width="12" height="12" viewBox="0 0 12 12" fill="none" xmlns="http://www.w3.org/2000/svg">
<path d="M6.31231 0C3.67331 0 1.51341 1.44412 1.51341 3.2085V3.64672H3.43526V3.2085C3.43526 2.13853 4.71199 1.28494 6.31231 1.28494C7.91263 1.28494 9.18937 2.13853 9.18937 3.2085V4.96637C8.34274 4.62816 7.35473 4.43325 6.30142 4.43325C3.18753 4.43325 0.642578 6.13475 0.642578 8.21663C0.642578 10.2985 3.18753 12 6.30142 12C9.41531 12 11.9603 10.2985 11.9603 8.21663C11.9603 7.48881 11.6489 6.80762 11.1113 6.22925V3.2085C11.1113 1.44412 8.95136 0 6.31236 0H6.31231ZM6.30142 5.71819C8.37663 5.71819 10.0384 6.82919 10.0384 8.21663C10.0384 9.60409 8.37663 10.7151 6.30142 10.7151C4.22621 10.7151 2.56448 9.60409 2.56448 8.21663C2.56448 6.82919 4.22621 5.71819 6.30142 5.71819ZM6.31989 7.16797C5.44419 7.16797 4.73434 7.64256 4.73434 8.22803C4.73434 8.8135 5.44419 9.28809 6.31989 9.28809C7.19553 9.28809 7.90544 8.8135 7.90544 8.22803C7.90544 7.64256 7.19553 7.16797 6.31989 7.16797Z" fill="#0384C6" fill-opacity="0.67"/>
</svg>
