<svg width="11" height="11" viewBox="0 0 11 11" fill="none" xmlns="http://www.w3.org/2000/svg">
<path d="M9.25696 5.5L10.5544 3.81013C10.5898 3.76338 10.5848 3.69462 10.5417 3.65475C10.524 3.63825 10.5012 3.62862 10.4771 3.62862H9.78403C9.75362 3.62862 9.72575 3.64375 9.70674 3.6685L8.77803 4.87713L7.85184 3.66987C7.83284 3.64512 7.8037 3.63 7.77455 3.63H7.08023C7.05616 3.63 7.03335 3.63962 7.01562 3.65612C6.97254 3.69462 6.9662 3.76475 7.00295 3.8115L8.2991 5.5L7.00168 7.18988C6.9662 7.23663 6.97127 7.30538 7.01435 7.34525C7.03209 7.36175 7.05489 7.37137 7.07897 7.37137H7.77202C7.80243 7.37137 7.8303 7.35625 7.84931 7.3315L8.77549 6.12425L9.70168 7.3315C9.72068 7.35625 9.74982 7.37137 9.77896 7.37137H10.4758C10.4999 7.37137 10.5227 7.36175 10.5404 7.34525C10.5835 7.30675 10.5898 7.23663 10.5531 7.18988L9.25696 5.5ZM5.66118 4.84H0.390423C0.334675 4.84 0.289062 4.8895 0.289062 4.95V6.05C0.289062 6.1105 0.334675 6.16 0.390423 6.16H5.66118C5.71693 6.16 5.76254 6.1105 5.76254 6.05V4.95C5.76254 4.8895 5.71693 4.84 5.66118 4.84ZM4.59689 7.645H3.83669C3.79488 7.645 3.76067 7.68213 3.76067 7.7275V10.01H0.593145C0.551333 10.01 0.517124 10.0471 0.517124 10.0925V10.9175C0.517124 10.9629 0.551333 11 0.593145 11H4.29281C4.50314 11 4.67291 10.8158 4.67291 10.5875V7.7275C4.67291 7.68213 4.63871 7.645 4.59689 7.645ZM0.593145 0.99H3.76067V3.2725C3.76067 3.31787 3.79488 3.355 3.83669 3.355H4.59689C4.63871 3.355 4.67291 3.31787 4.67291 3.2725V0.4125C4.67291 0.18425 4.50314 0 4.29281 0H0.593145C0.551333 0 0.517124 0.037125 0.517124 0.0825V0.9075C0.517124 0.952875 0.551333 0.99 0.593145 0.99Z" fill="#DA1E1E"/>
</svg>
