<svg width="11" height="11" viewBox="0 0 13 14" fill="none" xmlns="http://www.w3.org/2000/svg">
<path d="M13 11H11V9H10V11H8V12H10V14H11V12H13V11Z" fill="#58950A"/>
<path d="M10 1.5H8.5V1C8.49921 0.735027 8.3936 0.481133 8.20623 0.293767C8.01887 0.106402 7.76497 0.000791363 7.5 0H3.5C3.23503 0.000791363 2.98113 0.106402 2.79377 0.293767C2.6064 0.481133 2.50079 0.735027 2.5 1V1.5H1C0.735027 1.50079 0.481133 1.6064 0.293767 1.79377C0.106402 1.98113 0.000791363 2.23503 0 2.5V13C0.000791363 13.265 0.106402 13.5189 0.293767 13.7062C0.481133 13.8936 0.735027 13.9992 1 14H6V13H1V2.5H2.5V4H8.5V2.5H10V7H11V2.5C10.9992 2.23503 10.8936 1.98113 10.7062 1.79377C10.5189 1.6064 10.265 1.50079 10 1.5ZM7.5 3H3.5V1H7.5V3Z" fill="#58950A"/>
</svg>
