<svg width="11" height="11" viewBox="0 0 11 11" fill="none" xmlns="http://www.w3.org/2000/svg">
    <path d="M9.31067 5.5L10.6081 3.81013C10.6436 3.76338 10.6385 3.69462 10.5954 3.65475C10.5777 3.63825 10.5549 3.62862 10.5308 3.62862H9.83774C9.80733 3.62862 9.77946 3.64375 9.76045 3.6685L8.83174 4.87713L7.90555 3.66987C7.88655 3.64512 7.85741 3.63 7.82826 3.63H7.13394C7.10987 3.63 7.08706 3.63962 7.06933 3.65612C7.02625 3.69462 7.01991 3.76475 7.05666 3.8115L8.35281 5.5L7.05539 7.18988C7.01991 7.23663 7.02498 7.30538 7.06806 7.34525C7.0858 7.36175 7.1086 7.37137 7.13268 7.37137H7.82573C7.85614 7.37137 7.88401 7.35625 7.90302 7.3315L8.8292 6.12425L9.75539 7.3315C9.77439 7.35625 9.80353 7.37137 9.83267 7.37137H10.5295C10.5536 7.37137 10.5764 7.36175 10.5941 7.34525C10.6372 7.30675 10.6436 7.23663 10.6068 7.18988L9.31067 5.5ZM5.71489 4.84H0.444134C0.388386 4.84 0.342773 4.8895 0.342773 4.95V6.05C0.342773 6.1105 0.388386 6.16 0.444134 6.16H5.71489C5.77064 6.16 5.81625 6.1105 5.81625 6.05V4.95C5.81625 4.8895 5.77064 4.84 5.71489 4.84ZM4.65061 7.645H3.8904C3.84859 7.645 3.81438 7.68213 3.81438 7.7275V10.01H0.646856C0.605044 10.01 0.570835 10.0471 0.570835 10.0925V10.9175C0.570835 10.9629 0.605044 11 0.646856 11H4.34652C4.55685 11 4.72663 10.8158 4.72663 10.5875V7.7275C4.72663 7.68213 4.69242 7.645 4.65061 7.645ZM0.646856 0.99H3.81438V3.2725C3.81438 3.31787 3.84859 3.355 3.8904 3.355H4.65061C4.69242 3.355 4.72663 3.31787 4.72663 3.2725V0.4125C4.72663 0.18425 4.55685 0 4.34652 0H0.646856C0.605044 0 0.570835 0.037125 0.570835 0.0825V0.9075C0.570835 0.952875 0.605044 0.99 0.646856 0.99Z" fill="#DA1E1E"/>
</svg>
