<svg width="12" height="12" viewBox="0 0 12 12" fill="none" xmlns="http://www.w3.org/2000/svg">
    <path d="M6.10333 0C3.46433 0 1.30443 1.44412 1.30443 3.2085V3.64672H3.22628V3.2085C3.22628 2.13853 4.50301 1.28494 6.10333 1.28494C7.70365 1.28494 8.98038 2.13853 8.98038 3.2085V4.96637C8.13376 4.62816 7.14575 4.43325 6.09244 4.43325C2.97855 4.43325 0.433594 6.13475 0.433594 8.21663C0.433594 10.2985 2.97855 12 6.09244 12C9.20633 12 11.7513 10.2985 11.7513 8.21663C11.7513 7.48881 11.4399 6.80762 10.9023 6.22925V3.2085C10.9023 1.44412 8.74238 0 6.10338 0H6.10333ZM6.09244 5.71819C8.16765 5.71819 9.82939 6.82919 9.82939 8.21663C9.82939 9.60409 8.16765 10.7151 6.09244 10.7151C4.01723 10.7151 2.35549 9.60409 2.35549 8.21663C2.35549 6.82919 4.01723 5.71819 6.09244 5.71819ZM6.1109 7.16797C5.23521 7.16797 4.52535 7.64256 4.52535 8.22803C4.52535 8.8135 5.23521 9.28809 6.1109 9.28809C6.98655 9.28809 7.69645 8.8135 7.69645 8.22803C7.69645 7.64256 6.98655 7.16797 6.1109 7.16797Z" fill="#0384C6" fill-opacity="0.67"/>
</svg>
