<svg width="45" height="41" viewBox="0 0 45 41" fill="none" xmlns="http://www.w3.org/2000/svg">
                    <rect x="0.208984" width="44.2419" height="41" rx="5" fill="#0384C6" fill-opacity="0.1"/>
                    <rect x="0.708984" y="0.5" width="43.2419" height="40" rx="4.5" stroke="#0384C6" stroke-opacity="0.28"/>
                    <path d="M21.3123 14C18.6733 14 16.5134 15.4441 16.5134 17.2085V17.6467H18.4353V17.2085C18.4353 16.1385 19.712 15.2849 21.3123 15.2849C22.9126 15.2849 24.1894 16.1385 24.1894 17.2085V18.9664C23.3427 18.6282 22.3547 18.4332 21.3014 18.4332C18.1875 18.4332 15.6426 20.1348 15.6426 22.2166C15.6426 24.2985 18.1875 26 21.3014 26C24.4153 26 26.9603 24.2985 26.9603 22.2166C26.9603 21.4888 26.6489 20.8076 26.1113 20.2292V17.2085C26.1113 15.4441 23.9514 14 21.3124 14H21.3123ZM21.3014 19.7182C23.3766 19.7182 25.0384 20.8292 25.0384 22.2166C25.0384 23.6041 23.3766 24.7151 21.3014 24.7151C19.2262 24.7151 17.5645 23.6041 17.5645 22.2166C17.5645 20.8292 19.2262 19.7182 21.3014 19.7182ZM21.3199 21.168C20.4442 21.168 19.7343 21.6426 19.7343 22.228C19.7343 22.8135 20.4442 23.2881 21.3199 23.2881C22.1955 23.2881 22.9054 22.8135 22.9054 22.228C22.9054 21.6426 22.1955 21.168 21.3199 21.168Z" fill="#0384C6" fill-opacity="0.67"/>
                    </svg>