<svg className="mt-20 -ml-4" width="24" height="24" viewBox="0 0 24 24" fill="none" xmlns="http://www.w3.org/2000/svg">
<rect width="24" height="24" rx="12" fill="white"/>
<rect x="0.5" y="0.5" width="23" height="23" rx="11.5" stroke="black" stroke-opacity="0.1"/>
<path d="M8.82125 15.2C8.84625 15.2 8.87125 15.1978 8.89625 15.1944L10.9987 14.8625C11.0237 14.858 11.0475 14.8479 11.065 14.831L16.3637 10.0621C16.3753 10.0517 16.3845 10.0394 16.3908 10.0257C16.3971 10.0121 16.4003 9.99755 16.4003 9.98281C16.4003 9.96808 16.3971 9.95349 16.3908 9.93988C16.3845 9.92627 16.3753 9.91391 16.3637 9.9035L14.2863 8.03263C14.2625 8.01125 14.2312 8 14.1975 8C14.1637 8 14.1325 8.01125 14.1088 8.03263L8.81 12.8015C8.79125 12.8184 8.78 12.8386 8.775 12.8611L8.40625 14.7534C8.39409 14.8136 8.39843 14.8757 8.41891 14.9341C8.43938 14.9925 8.47537 15.0455 8.52375 15.0886C8.60625 15.1606 8.71 15.2 8.82125 15.2V15.2ZM9.66375 13.238L14.1975 9.15875L15.1137 9.98337L10.58 14.0626L9.46875 14.2392L9.66375 13.238V13.238ZM16.6 16.145H7.4C7.17875 16.145 7 16.3059 7 16.505V16.91C7 16.9595 7.045 17 7.1 17H16.9C16.955 17 17 16.9595 17 16.91V16.505C17 16.3059 16.8213 16.145 16.6 16.145Z" fill="#1CA0E3"/>
</svg>