<svg width="21" height="16" viewBox="0 0 21 16" fill="none" xmlns="http://www.w3.org/2000/svg">
<path d="M19.9891 12H17.4169V10H16.1308V12H13.5586V13H16.1308V15H17.4169V13H19.9891V12Z" fill="#58950A"/>
<path d="M16.1305 2.5H14.2014V2C14.2004 1.73503 14.0645 1.48113 13.8236 1.29377C13.5826 1.1064 13.2561 1.00079 12.9153 1H7.77089C7.4301 1.00079 7.10357 1.1064 6.8626 1.29377C6.62163 1.48113 6.4858 1.73503 6.48478 2V2.5H4.55563C4.21485 2.50079 3.88832 2.6064 3.64735 2.79377C3.40638 2.98113 3.27055 3.23503 3.26953 3.5V14C3.27055 14.265 3.40638 14.5189 3.64735 14.7062C3.88832 14.8936 4.21485 14.9992 4.55563 15H10.9861V14H4.55563V3.5H6.48478V5H14.2014V3.5H16.1305V8H17.4166V3.5C17.4156 3.23503 17.2798 2.98113 17.0388 2.79377C16.7979 2.6064 16.4713 2.50079 16.1305 2.5ZM12.9153 4H7.77089V2H12.9153V4Z" fill="#58950A"/>
</svg>
